<?xml version="1.0" encoding="utf-8"?>
<!-- Generator: Adobe Illustrator 25.4.1, SVG Export Plug-In . SVG Version: 6.00 Build 0)  -->
<svg version="1.1" id="Capa_1" xmlns="http://www.w3.org/2000/svg" xmlns:xlink="http://www.w3.org/1999/xlink" x="0px" y="0px"
	 viewBox="0 0 500 60.9" style="enable-background:new 0 0 500 60.9;" xml:space="preserve">
<style type="text/css">
	.st0{fill:#00A4E0;}
</style>
<path d="M66.8,36.2c-0.5,4.7-2.3,9.2-5.2,13c-3,3.8-6.9,6.8-11.3,8.8c-5.1,2.1-10.5,3.2-16,3.1c-6,0.1-12-1.2-17.5-3.8
	C12,54.9,8,51.3,5.1,46.7c-2.9-4.8-4.3-10.3-4.2-15.9c-0.1-5.6,1.3-11.1,4.2-15.9C8,10.3,12,6.7,16.8,4.3c5.4-2.6,11.4-3.9,17.5-3.8
	c5.5-0.1,11,1,16,3.1c4.5,1.9,8.4,4.9,11.4,8.7c2.9,3.8,4.7,8.3,5.2,13.1H53.6c-0.5-2.6-1.6-5.1-3.3-7.1c-1.8-2.1-4.1-3.6-6.6-4.6
	c-3-1.1-6.2-1.7-9.4-1.6c-3.7-0.1-7.3,0.7-10.6,2.3c-2.9,1.4-5.3,3.7-6.9,6.5c-1.7,3.1-2.5,6.5-2.4,10c-0.1,3.5,0.7,6.9,2.4,10
	c1.6,2.8,4,5.1,6.9,6.5c3.3,1.6,6.9,2.4,10.6,2.3c3.2,0,6.4-0.5,9.4-1.6c2.5-1,4.8-2.5,6.6-4.6c1.7-2.1,2.9-4.5,3.3-7.2L66.8,36.2z"
	/>
<path d="M114.2,61.1c-6.2,0.1-12.3-1.2-17.8-3.8c-10.2-4.8-16.6-15.2-16.2-26.5c-0.1-5.6,1.4-11.1,4.3-15.9c2.9-4.6,7-8.3,11.9-10.6
	c5.6-2.6,11.7-3.9,17.8-3.8c6.2-0.1,12.3,1.2,17.8,3.8c4.9,2.4,9,6,11.9,10.6c2.9,4.8,4.4,10.3,4.3,15.9c0.4,11.3-6,21.7-16.2,26.5
	C126.4,60,120.3,61.3,114.2,61.1z M114.2,49.4c3.8,0.1,7.6-0.7,11-2.2c3-1.4,5.4-3.6,7.1-6.5c1.7-3,2.6-6.4,2.5-9.9
	c0.1-3.5-0.8-6.9-2.5-9.9c-1.7-2.8-4.2-5-7.2-6.4c-3.4-1.6-7.2-2.3-11-2.2c-3.8-0.1-7.6,0.7-11,2.2c-3,1.4-5.5,3.6-7.2,6.5
	c-1.7,3-2.6,6.4-2.5,9.9c-0.1,3.5,0.8,6.9,2.5,9.9c1.7,2.8,4.2,5.1,7.2,6.5C106.6,48.7,110.4,49.5,114.2,49.4z"/>
<path d="M227.4,36.2c-0.5,4.7-2.3,9.2-5.2,13c-3,3.8-6.9,6.9-11.3,8.8c-5.1,2.1-10.5,3.2-16,3.1c-6,0.1-12-1.2-17.5-3.8
	c-4.8-2.4-8.9-6-11.7-10.6c-2.9-4.8-4.3-10.3-4.2-15.9c-0.1-5.6,1.3-11.1,4.2-15.9c2.8-4.6,6.9-8.2,11.7-10.6
	c5.4-2.6,11.4-3.9,17.5-3.8c5.5-0.1,10.9,1,16,3.1c4.5,1.9,8.4,4.9,11.4,8.7c2.9,3.8,4.7,8.3,5.2,13.1h-13.2
	c-0.5-2.6-1.6-5.1-3.3-7.1c-1.8-2.1-4.1-3.6-6.6-4.6c-3-1.1-6.2-1.7-9.4-1.6c-3.7-0.1-7.3,0.7-10.6,2.3c-2.9,1.4-5.3,3.7-6.9,6.5
	c-1.7,3.1-2.5,6.5-2.4,10c-0.1,3.5,0.7,6.9,2.4,10c1.6,2.8,4,5.1,6.9,6.5c3.3,1.6,6.9,2.4,10.6,2.3c3.2,0.1,6.4-0.5,9.4-1.6
	c2.5-1,4.8-2.5,6.6-4.6c1.7-2.1,2.9-4.5,3.3-7.2L227.4,36.2z"/>
<polygon points="372.1,1.7 312.6,1.7 312.6,13.3 335.8,13.3 335.8,60 348.9,60 348.9,13.3 372.1,13.3 "/>
<polygon points="461.3,48.3 461.3,1.7 448.1,1.7 448.1,60 499.1,60 499.1,48.3 "/>
<rect x="421.5" y="1.7" class="st0" width="13.2" height="58.3"/>
<polygon class="st0" points="401.2,1.7 373.9,60 388,60 409.7,11.9 409.7,11.9 410.9,9.2 414.5,1.7 "/>
<polygon points="254.1,41.9 254.1,1.7 240.9,1.7 240.9,60 252.8,60 254.1,60 254.1,41.9 "/>
<polygon points="280.6,26.7 300.5,1.7 286.4,1.7 260.5,33.9 260.5,51.8 272.3,37.1 286.3,60 301.3,60 "/>
</svg>
