<?xml version="1.0" encoding="utf-8"?>
<!-- Generator: Adobe Illustrator 28.2.0, SVG Export Plug-In . SVG Version: 6.00 Build 0)  -->
<svg version="1.1" id="Capa_1" xmlns="http://www.w3.org/2000/svg" xmlns:xlink="http://www.w3.org/1999/xlink" x="0px" y="0px"
	 viewBox="0 0 940 790" style="enable-background:new 0 0 940 790;" xml:space="preserve">
<style type="text/css">
	.st0{fill:#76777A;}
	.st1{fill:#F18A00;}
</style>
<g id="XMLID_507_">
	<g id="XMLID_508_">
		<g id="XMLID_535_">
			<path id="XMLID_591_" class="st0" d="M177.91,580.68c0-4.27-2-6.85-6.21-6.85c-4.23,0-6.56,2.76-6.56,6.21
				c0,10.34,16.8,4.66,16.8,16.85c0,6.69-4.18,10.14-10.47,10.14c-6.51,0-10.11-3.5-10.11-10.29v-1.02h3.11v1.31
				c0,4.42,2.33,7.39,6.89,7.39c4.37,0,7.47-2.19,7.47-7.04c0-10.3-16.78-4.43-16.78-17c0-5.44,3.53-9.18,9.57-9.18
				c6.45,0,9.4,3.3,9.4,9.47H177.91z"/>
			<path id="XMLID_589_" class="st0" d="M191.55,583.11H188v-2.43h3.55v-7.13h2.9v7.13h4.57v2.43h-4.57v18.51
				c0,2.03,0.88,2.7,2.78,2.7c0.58,0,1.16-0.09,1.79-0.28v2.42c-0.34,0.2-1.07,0.29-2.04,0.29c-3.92,0-5.43-1.06-5.43-4.52V583.11z"
				/>
			<path id="XMLID_587_" class="st0" d="M206.54,580.68h2.93v4.02h0.09c1.11-2.86,3.49-4.6,6.5-4.6c0.34,0,0.68,0.04,1.02,0.13v2.92
				c-0.49-0.09-0.97-0.13-1.41-0.13c-3.2,0-6.2,2.32-6.2,7.32v16.13h-2.93V580.68z"/>
			<path id="XMLID_584_" class="st0" d="M223.88,588.36c0-5.3,2.53-8.25,7.96-8.25c5.33,0,7.28,2.75,7.28,6.83v15.25
				c0,1.46,0.49,2.14,1.5,2.14h0.83v2.14c-0.53,0.2-0.96,0.29-1.35,0.29c-2.3,0-3.74-0.54-3.74-3.22v-0.87h-0.11
				c-1.16,3.4-3.79,4.37-6.64,4.37c-4.52,0-6.56-2.81-6.56-7.27c0-3.39,1.56-6.12,5.18-7.14l5.49-1.56
				c2.05-0.58,2.48-1.07,2.48-4.09c0-3.3-1.84-4.46-4.47-4.46c-3.45,0-4.94,2.09-4.94,5.83H223.88z M236.21,591.89h-0.1
				c-0.28,0.88-1.93,1.42-3.1,1.71l-2.43,0.63c-2.9,0.77-4.42,2.28-4.42,5.35c0,3.01,1.57,5.04,4.09,5.04
				c3.54,0,5.97-2.66,5.97-7.28V591.89z"/>
			<path id="XMLID_582_" class="st0" d="M250.73,583.11h-3.55v-2.43h3.55v-7.13h2.9v7.13h4.57v2.43h-4.57v18.51
				c0,2.03,0.88,2.7,2.77,2.7c0.6,0,1.17-0.09,1.8-0.28v2.42c-0.33,0.2-1.06,0.29-2.03,0.29c-3.95,0-5.45-1.06-5.45-4.52V583.11z"/>
			<path id="XMLID_579_" class="st0" d="M281.61,597.91c-0.45,5.49-3.45,9.13-8.31,9.13c-5.44,0-8.64-3.78-8.64-13.49
				c0-8.93,3.2-13.44,8.88-13.44c5.73,0,8.31,3.92,8.31,12.52v1.08h-14.09v1.2c0,7.43,2.63,9.71,5.5,9.71c3.06,0,4.95-2.19,5.43-6.7
				H281.61z M278.74,591.27c-0.11-6.41-1.9-8.74-5.49-8.74c-3.61,0-5.4,2.33-5.5,8.74H278.74z"/>
			<path id="XMLID_576_" class="st0" d="M304.08,580.68h2.62v23.93c0,7.13-2.62,10.78-8.46,10.78c-4.99,0-7.63-2.63-7.68-6.31h2.92
				c0,2.42,2.28,3.88,4.85,3.88c3.56,0,5.45-2.48,5.45-7.05v-4.08h-0.1c-0.92,3.16-3.36,4.62-6.01,4.62
				c-3.99,0-7.97-2.63-7.97-12.92c0-8.88,2.57-13.44,8.25-13.44c2.83,0,5.1,1.64,6.02,4.56h0.1V580.68z M298.3,604.04
				c3.45,0,5.49-2.53,5.49-10.79c0-8.21-2.05-10.73-5.49-10.73c-3.45,0-5.47,2.52-5.47,10.73
				C292.82,601.51,294.85,604.04,298.3,604.04z"/>
			<path id="XMLID_573_" class="st0" d="M317.08,571.79H320v4.95h-2.92V571.79z M317.08,580.68H320v25.78h-2.92V580.68z"/>
			<path id="XMLID_571_" class="st0" d="M345.66,597.91c-0.42,5.49-3.44,9.13-8.19,9.13c-5.44,0-8.64-3.78-8.64-13.49
				c0-8.93,3.2-13.44,8.88-13.44c4.86,0,7.66,2.95,7.95,8.25h-2.9c-0.35-4.03-1.95-5.83-5.05-5.83c-3.16,0-5.77,1.94-5.77,11.07
				c0,9.69,2.76,11.01,5.48,11.01c2.96,0,4.86-2.19,5.35-6.7H345.66z"/>
			<path id="XMLID_567_" class="st0" d="M370.24,571.79h9.55c6.71,0,9.33,3.54,9.33,8.7c0,3.39-1.85,6.65-5.35,7.53v0.09
				c4.28,0.82,6.46,4.11,6.46,8.63c0,6.08-3.93,9.72-10.5,9.72h-9.5V571.79z M373.35,587.04h4.89c5.33,0,7.77-2.28,7.77-6.31
				c0-4.6-2.37-6.31-7.22-6.31h-5.43V587.04z M373.35,603.84h5.77c5.39,0,8-2.43,8-7.09c0-4.66-2.61-7.08-8-7.08h-5.77V603.84z"/>
			<path id="XMLID_565_" class="st0" d="M398.97,580.68h2.92v18.15c0,4.18,1.4,5.78,4.46,5.78c3.3,0,5.64-2.63,5.64-6.6v-17.32h2.91
				v25.78h-2.64v-3.6h-0.09c-1.45,2.88-3.98,4.18-6.59,4.18c-3.92,0-6.61-2.04-6.61-6.9V580.68z"/>
			<path id="XMLID_563_" class="st0" d="M428.96,593.64c-3.63-1.42-4.95-3.55-4.95-6.12c0-5.29,3.31-7.42,7.68-7.42
				c4.85,0,7.08,2.46,7.08,7.17v0.74h-2.91v-0.74c0-3.35-1.56-4.75-4.24-4.75c-3.39,0-4.7,1.8-4.7,4.37c0,1.8,0.57,3.2,3.48,4.32
				l4.24,1.62c3.49,1.29,4.79,3.73,4.79,6.54c0,4.42-2.53,7.67-7.95,7.67c-5.29,0-7.92-2.19-7.92-8.01v-0.82h2.92v0.67
				c0,3.79,1.65,5.74,4.96,5.74c3.1,0,5.09-1.75,5.09-4.6c0-2.29-0.93-3.74-3.49-4.76L428.96,593.64z"/>
			<path id="XMLID_560_" class="st0" d="M448.35,571.79h2.91v4.95h-2.91V571.79z M448.35,580.68h2.91v25.78h-2.91V580.68z"/>
			<path id="XMLID_558_" class="st0" d="M461.45,580.68h2.63v3.59h0.09c1.45-2.85,3.97-4.17,6.61-4.17c3.93,0,6.58,2.03,6.58,6.88
				v19.48h-2.9v-18.65c0-3.53-1.46-5.28-4.42-5.28c-3.39,0-5.68,2.63-5.68,6.6v17.34h-2.92V580.68z"/>
			<path id="XMLID_555_" class="st0" d="M503.26,597.91c-0.45,5.49-3.46,9.13-8.31,9.13c-5.46,0-8.66-3.78-8.66-13.49
				c0-8.93,3.21-13.44,8.89-13.44c5.74,0,8.32,3.92,8.32,12.52v1.08h-14.1v1.2c0,7.43,2.63,9.71,5.49,9.71
				c3.05,0,4.95-2.19,5.44-6.7H503.26z M500.37,591.27c-0.09-6.41-1.89-8.74-5.48-8.74c-3.6,0-5.4,2.33-5.49,8.74H500.37z"/>
			<path id="XMLID_553_" class="st0" d="M516.49,593.64c-3.62-1.42-4.94-3.55-4.94-6.12c0-5.29,3.29-7.42,7.65-7.42
				c4.86,0,7.1,2.46,7.1,7.17v0.74h-2.9v-0.74c0-3.35-1.55-4.75-4.22-4.75c-3.41,0-4.72,1.8-4.72,4.37c0,1.8,0.58,3.2,3.49,4.32
				l4.23,1.62c3.49,1.29,4.79,3.73,4.79,6.54c0,4.42-2.51,7.67-7.94,7.67c-5.31,0-7.94-2.19-7.94-8.01v-0.82h2.92v0.67
				c0,3.79,1.66,5.74,4.96,5.74c3.12,0,5.09-1.75,5.09-4.6c0-2.29-0.91-3.74-3.48-4.76L516.49,593.64z"/>
			<path id="XMLID_551_" class="st0" d="M539.75,593.64c-3.64-1.42-4.95-3.55-4.95-6.12c0-5.29,3.29-7.42,7.67-7.42
				c4.85,0,7.08,2.46,7.08,7.17v0.74h-2.89v-0.74c0-3.35-1.58-4.75-4.24-4.75c-3.39,0-4.7,1.8-4.7,4.37c0,1.8,0.57,3.2,3.49,4.32
				l4.22,1.62c3.49,1.29,4.81,3.73,4.81,6.54c0,4.42-2.52,7.67-7.96,7.67c-5.3,0-7.92-2.19-7.92-8.01v-0.82h2.93v0.67
				c0,3.79,1.64,5.74,4.93,5.74c3.12,0,5.1-1.75,5.1-4.6c0-2.29-0.92-3.74-3.5-4.76L539.75,593.64z"/>
			<path id="XMLID_549_" class="st0" d="M590.04,580.68c0-4.27-1.98-6.85-6.22-6.85c-4.23,0-6.55,2.76-6.55,6.21
				c0,10.34,16.8,4.66,16.8,16.85c0,6.69-4.18,10.14-10.48,10.14c-6.5,0-10.11-3.5-10.11-10.29v-1.02h3.1v1.31
				c0,4.42,2.34,7.39,6.9,7.39c4.37,0,7.47-2.19,7.47-7.04c0-10.3-16.8-4.43-16.8-17c0-5.44,3.55-9.18,9.57-9.18
				c6.45,0,9.42,3.3,9.42,9.47H590.04z"/>
			<path id="XMLID_547_" class="st0" d="M600.14,580.68h3.12l5.77,22.33h0.09l5.2-22.33h3.1l-7.51,27.87
				c-1.36,5.05-2.93,6.45-6.85,6.45c-0.79,0-1.36-0.06-1.95-0.09v-2.43c0.63,0.05,1.25,0.09,1.88,0.09c1.8,0,3.01-0.73,3.83-3.45
				l0.74-2.41L600.14,580.68z"/>
			<path id="XMLID_545_" class="st0" d="M629.04,593.64c-3.67-1.42-4.98-3.55-4.98-6.12c0-5.29,3.32-7.42,7.68-7.42
				c4.86,0,7.09,2.46,7.09,7.17v0.74h-2.92v-0.74c0-3.35-1.55-4.75-4.23-4.75c-3.38,0-4.69,1.8-4.69,4.37c0,1.8,0.59,3.2,3.49,4.32
				l4.23,1.62c3.48,1.29,4.82,3.73,4.82,6.54c0,4.42-2.55,7.67-7.98,7.67c-5.28,0-7.91-2.19-7.91-8.01v-0.82h2.91v0.67
				c0,3.79,1.66,5.74,4.96,5.74c3.1,0,5.1-1.75,5.1-4.6c0-2.29-0.92-3.74-3.51-4.76L629.04,593.64z"/>
			<path id="XMLID_543_" class="st0" d="M649.27,583.11h-3.54v-2.43h3.54v-7.13h2.9v7.13h4.56v2.43h-4.56v18.51
				c0,2.03,0.88,2.7,2.77,2.7c0.58,0,1.18-0.09,1.8-0.28v2.42c-0.33,0.2-1.05,0.29-2.02,0.29c-3.93,0-5.44-1.06-5.44-4.52V583.11z"
				/>
			<path id="XMLID_540_" class="st0" d="M680.16,597.91c-0.45,5.49-3.46,9.13-8.31,9.13c-5.44,0-8.64-3.78-8.64-13.49
				c0-8.93,3.21-13.44,8.89-13.44c5.71,0,8.3,3.92,8.3,12.52v1.08h-14.09v1.2c0,7.43,2.63,9.71,5.49,9.71c3.05,0,4.95-2.19,5.44-6.7
				H680.16z M677.28,591.27c-0.1-6.41-1.89-8.74-5.48-8.74c-3.58,0-5.39,2.33-5.49,8.74H677.28z"/>
			<path id="XMLID_538_" class="st0" d="M689.51,580.68h2.62v3.59h0.09c1.36-2.85,3.68-4.17,6.55-4.17c3.11,0,5,1.88,5.4,4.51h0.09
				c1.16-2.88,3.26-4.51,6.55-4.51c3.59,0,5.97,2.03,5.97,6.65v19.7h-2.91v-19.27c0-3.06-1.4-4.66-4.03-4.66
				c-2.9,0-5.23,2.63-5.23,6.6v17.34h-2.93v-19.27c0-3.06-1.39-4.66-4.02-4.66c-2.91,0-5.24,2.63-5.24,6.6v17.34h-2.92V580.68z"/>
			<path id="XMLID_536_" class="st0" d="M731.06,593.64c-3.64-1.42-4.94-3.55-4.94-6.12c0-5.29,3.3-7.42,7.66-7.42
				c4.87,0,7.09,2.46,7.09,7.17v0.74h-2.91v-0.74c0-3.35-1.56-4.75-4.22-4.75c-3.4,0-4.72,1.8-4.72,4.37c0,1.8,0.6,3.2,3.5,4.32
				l4.23,1.62c3.48,1.29,4.79,3.73,4.79,6.54c0,4.42-2.52,7.67-7.96,7.67c-5.29,0-7.9-2.19-7.9-8.01v-0.82h2.92v0.67
				c0,3.79,1.63,5.74,4.94,5.74c3.1,0,5.1-1.75,5.1-4.6c0-2.29-0.92-3.74-3.5-4.76L731.06,593.64z"/>
		</g>
		<g id="XMLID_516_">
			<path id="XMLID_533_" class="st0" d="M168.68,534.11c-2.33,0-3.48-1.13-3.48-3.47V412.42c0-2.32,1.15-3.49,3.48-3.49h61.36
				c2.32,0,3.48,1.17,3.48,3.49v8.69c0,2.32-1.16,3.47-3.48,3.47h-42.95V463h34.27c2.31,0,3.47,1.16,3.47,3.49v8.69
				c0,2.33-1.16,3.47-3.47,3.47h-34.27v39.81h42.95c2.32,0,3.48,1.16,3.48,3.49v8.68c0,2.34-1.16,3.47-3.48,3.47H168.68z"/>
			<path id="XMLID_531_" class="st0" d="M267.59,494.65c-6.49-1.97-11.18-5.21-14.09-9.74c-2.9-4.53-4.34-9.67-4.34-15.48
				c0-3.94,0.68-7.62,2.09-11.03c1.38-3.42,3.43-6.41,6.17-8.95c2.71-2.56,6.1-4.53,10.16-5.92c4.05-1.4,8.75-2.09,14.08-2.09
				c7.43,0,13.84,0.92,19.22,2.78c5.38,1.85,9.06,3.76,11.04,5.74c0.34,0.34,0.65,0.86,0.94,1.56c0.29,0.7-0.03,1.69-0.94,2.95
				l-3.66,5.57c-0.34,0.83-0.99,1.12-1.9,0.98c-0.94-0.19-1.8-0.39-2.62-0.61c-3.13-1.17-6.34-2.19-9.65-3.05
				c-3.3-0.87-6.81-1.3-10.53-1.3c-5.21,0-8.94,1.04-11.21,3.12c-2.26,2.09-3.39,4.82-3.39,8.16c0,1.98,0.53,3.71,1.57,5.22
				c1.05,1.5,2.78,2.61,5.22,3.3l20.34,5.91c7.53,2.21,12.71,5.45,15.56,9.74c2.85,4.3,4.26,9.8,4.26,16.52
				c0,4.75-0.99,8.86-2.95,12.34c-1.96,3.47-4.61,6.41-7.92,8.78c-3.3,2.38-7.15,4.14-11.55,5.3c-4.4,1.15-8.98,1.74-13.74,1.74
				c-3.71,0-7.25-0.23-10.59-0.68c-3.38-0.46-6.44-1.07-9.24-1.83c-2.76-0.75-5.17-1.65-7.21-2.7c-2.02-1.05-3.45-2.15-4.25-3.3
				c-1.06-1.51-1.11-3.01-0.19-4.53l3.65-5.57c0.47-0.58,1.12-0.83,2.01-0.78c0.87,0.06,1.71,0.2,2.53,0.44
				c3.36,1.15,6.83,2.17,10.42,3.02c3.58,0.88,7.53,1.32,11.83,1.32c3.59,0,6.52-0.36,8.77-1.04c2.26-0.7,4.04-1.59,5.31-2.71
				c1.27-1.09,2.14-2.34,2.6-3.73c0.46-1.39,0.7-2.78,0.7-4.18c0-2.66-1.02-4.7-3.05-6.16c-2.03-1.45-5.54-2.98-10.52-4.61
				L267.59,494.65z"/>
			<path id="XMLID_529_" class="st0" d="M362.17,534.11c-7.88,0-13.84-2.23-17.91-6.68c-4.05-4.47-6.08-11.27-6.08-20.43v-49.54
				h-9.05c-2.32,0-3.48-1.16-3.48-3.48v-6.78c0-2.31,1.16-3.47,3.48-3.47h9.05v-13.39c0-1.27,0.28-2.06,0.87-2.35
				c0.58-0.28,1.44-0.66,2.62-1.13l13.9-5.21c1.15-0.47,2.02-0.33,2.59,0.43c0.58,0.76,0.87,1.77,0.87,3.04v18.62h10.95
				c2.32,0,3.48,1.15,3.48,3.47v6.78c0,2.32-1.16,3.48-3.48,3.48h-10.95v50.06c0,4.31,0.91,7.36,2.71,9.22
				c1.78,1.87,3.66,2.79,5.64,2.79h1.22c2.31,0,3.48,1.16,3.48,3.47v7.66c0,2.34-1.17,3.47-3.48,3.47H362.17z"/>
			<path id="XMLID_527_" class="st0" d="M390.86,534.11c-2.32,0-3.48-1.13-3.48-3.47v-83.45c0-2.31,1.16-3.47,3.48-3.47h8.68
				c1.27,0,2.04,0.29,2.26,0.85c0.24,0.59,0.64,1.45,1.23,2.61l1.73,6.6h0.35c1.85-2.88,3.79-5.08,5.83-6.6
				c2.01-1.52,4.02-2.61,5.98-3.3c1.98-0.7,3.96-1.13,6.01-1.31c2.01-0.17,3.96-0.26,5.82-0.26c1.27,0,2.13,0.11,2.53,0.35
				c0.4,0.23,0.6,0.98,0.6,2.26v13.04c0,1.16-0.21,1.95-0.6,2.33c-0.41,0.42-0.96,0.66-1.66,0.72c-0.69,0.06-1.48,0-2.35-0.19
				c-0.88-0.16-1.71-0.26-2.53-0.26c-11.01,0-16.52,5.63-16.52,16.87v53.2c0,2.34-1.15,3.47-3.48,3.47H390.86z"/>
			<path id="XMLID_524_" class="st0" d="M502.99,534.11c-1.27,0-2.11-0.26-2.52-0.79c-0.4-0.51-0.72-1.42-0.95-2.68l-1.73-7.12
				h-0.36c-2.31,4.17-5.59,7.32-9.83,9.47c-4.22,2.13-9.28,3.21-15.2,3.21c-4.41,0-8.59-0.63-12.53-1.91
				c-3.93-1.27-7.4-3.22-10.43-5.81c-3.01-2.62-5.38-5.89-7.13-9.82c-1.73-3.95-2.6-8.59-2.6-13.91c0-5.57,0.95-10.18,2.86-13.83
				c1.93-3.64,4.52-6.55,7.83-8.69c3.31-2.15,7.16-3.65,11.56-4.52c4.39-0.87,9.1-1.3,14.09-1.3h17.91
				c-0.24-1.86-0.67-3.94-1.32-6.26c-0.63-2.31-1.64-4.52-3.04-6.61c-1.39-2.07-3.27-3.84-5.65-5.29c-2.38-1.44-5.36-2.16-8.95-2.16
				c-2.79,0-5.77,0.4-8.96,1.2c-3.19,0.82-6.75,1.87-10.69,3.15c-1.63,0.58-2.71,0.75-3.29,0.51c-0.59-0.22-1-0.51-1.22-0.87
				l-3.65-5.57c-1.04-1.62-0.98-3.12,0.17-4.51c0.82-0.94,2.21-1.91,4.18-2.96c1.97-1.05,4.28-1.97,6.95-2.78
				c2.67-0.81,5.61-1.49,8.86-2.01c3.25-0.51,6.6-0.78,10.09-0.78c7.53,0,13.74,1.24,18.59,3.73c4.88,2.5,8.72,5.89,11.57,10.17
				c2.84,4.29,4.81,9.22,5.9,14.78c1.11,5.56,1.66,11.47,1.66,17.74v42.76c0,2.34-1.16,3.47-3.48,3.47H502.99z M494.3,491h-18.34
				c-4.68,0-8.39,1.16-11.19,3.49c-2.8,2.31-4.2,5.56-4.2,9.72c0,1.75,0.3,3.63,0.87,5.64c0.57,2.04,1.51,3.92,2.8,5.66
				c1.28,1.75,2.97,3.19,5.07,4.35c2.08,1.17,4.71,1.74,7.86,1.74c5.36,0,9.55-2.03,12.58-6.09c3.04-4.04,4.55-10.53,4.55-19.47V491
				z"/>
			<path id="XMLID_522_" class="st0" d="M549.23,494.65c-6.49-1.97-11.19-5.21-14.09-9.74c-2.89-4.53-4.35-9.67-4.35-15.48
				c0-3.94,0.7-7.62,2.09-11.03c1.39-3.42,3.46-6.41,6.17-8.95c2.72-2.56,6.12-4.53,10.17-5.92c4.06-1.4,8.75-2.09,14.08-2.09
				c7.42,0,13.82,0.92,19.22,2.78c5.39,1.85,9.07,3.76,11.04,5.74c0.36,0.34,0.66,0.86,0.95,1.56c0.29,0.7-0.02,1.69-0.95,2.95
				l-3.65,5.57c-0.34,0.83-0.99,1.12-1.91,0.98c-0.94-0.19-1.8-0.39-2.6-0.61c-3.14-1.17-6.34-2.19-9.65-3.05
				c-3.31-0.87-6.82-1.3-10.52-1.3c-5.22,0-8.96,1.04-11.22,3.12c-2.26,2.09-3.4,4.82-3.4,8.16c0,1.98,0.54,3.71,1.58,5.22
				c1.05,1.5,2.78,2.61,5.22,3.3l20.33,5.91c7.54,2.21,12.73,5.45,15.57,9.74c2.85,4.3,4.26,9.8,4.26,16.52
				c0,4.75-1,8.86-2.95,12.34c-1.99,3.47-4.61,6.41-7.92,8.78c-3.29,2.38-7.15,4.14-11.57,5.3c-4.39,1.15-8.98,1.74-13.72,1.74
				c-3.72,0-7.25-0.23-10.61-0.68c-3.36-0.46-6.43-1.07-9.21-1.83c-2.79-0.75-5.19-1.65-7.21-2.7c-2.04-1.05-3.46-2.15-4.27-3.3
				c-1.04-1.51-1.1-3.01-0.17-4.53l3.67-5.57c0.46-0.58,1.12-0.83,1.98-0.78c0.88,0.06,1.72,0.2,2.51,0.44
				c3.37,1.15,6.85,2.17,10.44,3.02c3.59,0.88,7.54,1.32,11.82,1.32c3.59,0,6.53-0.36,8.78-1.04c2.26-0.7,4.02-1.59,5.3-2.71
				c1.28-1.09,2.15-2.34,2.61-3.73c0.46-1.39,0.69-2.78,0.69-4.18c0-2.66-1.01-4.7-3.03-6.16c-2.04-1.45-5.54-2.98-10.52-4.61
				L549.23,494.65z"/>
			<path id="XMLID_519_" class="st0" d="M653.53,536.2c-8.33,0-15.23-1.25-20.67-3.74c-5.46-2.48-9.74-5.84-12.86-10.08
				c-3.14-4.23-5.35-9.2-6.62-14.95c-1.27-5.74-1.9-11.85-1.9-18.35c0-6.48,0.63-12.6,1.9-18.33c1.28-5.74,3.48-10.79,6.62-15.12
				c3.13-4.36,7.41-7.79,12.86-10.35c5.44-2.56,12.34-3.82,20.67-3.82c8.36,0,15.25,1.27,20.69,3.82
				c5.46,2.56,9.75,5.96,12.88,10.26c3.12,4.28,5.32,9.34,6.6,15.12c1.3,5.8,1.92,11.89,1.92,18.26c0,6.5-0.63,12.6-1.92,18.33
				c-1.27,5.74-3.48,10.75-6.6,15.04c-3.13,4.3-7.42,7.68-12.88,10.16C668.78,534.95,661.89,536.2,653.53,536.2z M653.53,520.56
				c4.3,0,7.84-0.85,10.61-2.53c2.78-1.68,4.96-3.94,6.53-6.77c1.56-2.85,2.64-6.18,3.21-10.01c0.59-3.81,0.87-7.94,0.87-12.34
				c0-4.29-0.28-8.38-0.87-12.27c-0.58-3.87-1.66-7.26-3.21-10.16c-1.57-2.9-3.75-5.18-6.53-6.86c-2.77-1.68-6.32-2.53-10.61-2.53
				c-4.39,0-7.95,0.85-10.67,2.53c-2.74,1.68-4.88,3.96-6.45,6.86c-1.55,2.9-2.62,6.28-3.21,10.16c-0.58,3.89-0.86,7.98-0.86,12.27
				c0,4.41,0.28,8.53,0.86,12.34c0.59,3.82,1.67,7.15,3.21,10.01c1.58,2.83,3.72,5.09,6.45,6.77
				C645.58,519.72,649.15,520.56,653.53,520.56z"/>
			<path id="XMLID_517_" class="st0" d="M735.25,534.11c-7.88,0-13.85-2.23-17.9-6.68c-4.06-4.47-6.09-11.27-6.09-20.43v-98.06
				c0-2.31,1.17-3.47,3.48-3.47h13.91c2.33,0,3.48,1.16,3.48,3.47v96.84c0,4.88,0.53,8.38,1.56,10.52c1.06,2.15,2.16,3.22,3.31,3.22
				h1.21c2.33,0,3.48,1.16,3.48,3.47v7.66c0,2.34-1.15,3.47-3.48,3.47H735.25z"/>
		</g>
		<path id="XMLID_515_" class="st1" d="M490.28,266.48v20.56l44.85-26.05c2.69-1.54,4.36-4.42,4.36-7.53v-40.88
			c0-3.1-1.67-5.96-4.35-7.52c-2.68-1.55-5.99-1.55-8.68,0l-49.44,28.56l-21.23,12.26l-57.64-33.29l57.64-33.29l18.05,10.46
			l-32.22,18.66l17.58,9.89l36.32-21.05c2.68-1.54,4.33-4.41,4.33-7.5c0-3.1-1.65-5.95-4.33-7.52l-35.39-20.48
			c-2.68-1.54-5.99-1.54-8.68,0l-75.02,43.31c-2.67,1.56-4.33,4.41-4.33,7.52v40.88c0,3.11,1.67,5.99,4.36,7.53l45.16,26.05v-20.37
			l-32.14-18.24v-20.8l53.65,30.98l3.99,2.3v66.56l-75.23-43.54v19.96l79.57,46.15c1.33,0.78,2.84,1.15,4.34,1.15
			c1.49,0,3-0.37,4.33-1.15L539.49,304v-19.75l-75.01,43.22v-66.56l26.11-15.07l31.55-18.21v20.8L490.28,266.48z"/>
		<g id="XMLID_509_">
			<path id="XMLID_510_" class="st0" d="M779.85,525.26c0,6.14-4.76,10.94-10.93,10.94c-6.18,0-10.96-4.8-10.96-10.94
				c0-6.13,4.78-10.94,10.96-10.94C775.08,514.32,779.85,519.12,779.85,525.26z M759.66,525.26c0,5.25,3.95,9.41,9.25,9.41
				c5.27,0,9.22-4.16,9.22-9.41c0-5.23-3.95-9.38-9.22-9.38C763.61,515.88,759.66,520.03,759.66,525.26z M764.93,531.59v-12.65h4.86
				c2.85,0,4.11,1.24,4.11,3.49c0,2.25-1.47,3.25-3.19,3.54l3.77,5.62h-1.82l-3.55-5.62h-2.64v5.62H764.93 M768.55,524.63
				c1.92,0,3.79-0.06,3.79-2.21c0-1.75-1.47-2.16-3-2.16h-2.87v4.37H768.55z"/>
		</g>
	</g>
</g>
<g id="XMLID_192_">
	<path id="XMLID_6_" class="st1" d="M1158.9,426.48v20.33l44.37-25.77c2.66-1.52,4.31-4.37,4.31-7.45v-40.43
		c0-3.07-1.65-5.89-4.3-7.44c-2.65-1.53-5.92-1.53-8.58,0l-48.91,28.25l-21,12.12l-57.02-32.94l57.02-32.93l17.86,10.34
		l-31.87,18.46l17.39,9.78l35.93-20.82c2.65-1.53,4.28-4.37,4.28-7.42c0-3.07-1.63-5.89-4.28-7.44l-35.01-20.26
		c-2.65-1.52-5.92-1.52-8.59,0l-74.21,42.84c-2.64,1.54-4.29,4.37-4.29,7.44v40.43c0,3.08,1.65,5.93,4.31,7.45l44.67,25.77v-20.15
		l-31.79-18.04v-20.58l53.08,30.65l3.95,2.27v65.84l-74.41-43.07v19.75l78.71,45.65c1.32,0.77,2.81,1.14,4.29,1.14
		c1.48,0,2.97-0.37,4.29-1.14l78.51-45.54v-19.54l-74.2,42.75v-65.84l25.82-14.91l31.21-18.01v20.58L1158.9,426.48z"/>
	<g id="XMLID_178_">
		<g id="XMLID_46_">
			<path id="XMLID_176_" class="st0" d="M1274.24,491.62c0-4.27-2-6.85-6.21-6.85c-4.23,0-6.56,2.76-6.56,6.21
				c0,10.34,16.8,4.65,16.8,16.85c0,6.69-4.18,10.14-10.47,10.14c-6.51,0-10.11-3.5-10.11-10.29v-1.02h3.11v1.31
				c0,4.42,2.33,7.39,6.89,7.39c4.37,0,7.47-2.19,7.47-7.04c0-10.3-16.78-4.43-16.78-17c0-5.44,3.53-9.18,9.57-9.18
				c6.45,0,9.4,3.3,9.4,9.47H1274.24z"/>
			<path id="XMLID_174_" class="st0" d="M1287.88,494.05h-3.55v-2.43h3.55v-7.13h2.9v7.13h4.57v2.43h-4.57v18.51
				c0,2.03,0.88,2.7,2.78,2.7c0.58,0,1.16-0.09,1.79-0.28v2.42c-0.34,0.2-1.07,0.29-2.04,0.29c-3.92,0-5.43-1.06-5.43-4.52V494.05z"
				/>
			<path id="XMLID_114_" class="st0" d="M1302.87,491.62h2.93v4.02h0.09c1.11-2.86,3.49-4.6,6.5-4.6c0.34,0,0.68,0.04,1.02,0.13
				v2.92c-0.49-0.09-0.97-0.13-1.41-0.13c-3.2,0-6.2,2.32-6.2,7.32v16.13h-2.93V491.62z"/>
			<path id="XMLID_110_" class="st0" d="M1320.21,499.29c0-5.3,2.53-8.25,7.96-8.25c5.33,0,7.28,2.75,7.28,6.83v15.25
				c0,1.46,0.49,2.14,1.5,2.14h0.83v2.14c-0.53,0.2-0.96,0.29-1.35,0.29c-2.3,0-3.74-0.54-3.74-3.22v-0.87h-0.11
				c-1.16,3.4-3.79,4.37-6.64,4.37c-4.52,0-6.56-2.81-6.56-7.27c0-3.39,1.56-6.12,5.18-7.14l5.49-1.56
				c2.05-0.58,2.48-1.07,2.48-4.09c0-3.3-1.84-4.46-4.47-4.46c-3.45,0-4.94,2.09-4.94,5.83H1320.21z M1332.54,502.83h-0.1
				c-0.28,0.88-1.93,1.42-3.1,1.71l-2.43,0.63c-2.9,0.77-4.42,2.28-4.42,5.35c0,3.01,1.57,5.04,4.09,5.04
				c3.54,0,5.97-2.66,5.97-7.28V502.83z"/>
			<path id="XMLID_108_" class="st0" d="M1347.06,494.05h-3.55v-2.43h3.55v-7.13h2.9v7.13h4.57v2.43h-4.57v18.51
				c0,2.03,0.88,2.7,2.77,2.7c0.6,0,1.17-0.09,1.8-0.28v2.42c-0.33,0.2-1.06,0.29-2.03,0.29c-3.95,0-5.45-1.06-5.45-4.52V494.05z"/>
			<path id="XMLID_105_" class="st0" d="M1377.94,508.84c-0.45,5.49-3.45,9.13-8.31,9.13c-5.44,0-8.64-3.78-8.64-13.49
				c0-8.93,3.2-13.44,8.88-13.44c5.73,0,8.31,3.92,8.31,12.52v1.08h-14.09v1.2c0,7.43,2.63,9.71,5.5,9.71c3.06,0,4.95-2.18,5.43-6.7
				H1377.94z M1375.07,502.2c-0.11-6.41-1.9-8.74-5.49-8.74c-3.61,0-5.4,2.33-5.5,8.74H1375.07z"/>
			<path id="XMLID_102_" class="st0" d="M1400.41,491.62h2.62v23.93c0,7.13-2.62,10.78-8.46,10.78c-4.99,0-7.63-2.63-7.68-6.31h2.92
				c0,2.42,2.28,3.88,4.85,3.88c3.56,0,5.45-2.48,5.45-7.05v-4.08h-0.1c-0.92,3.16-3.36,4.62-6.01,4.62
				c-3.99,0-7.97-2.63-7.97-12.92c0-8.88,2.57-13.44,8.25-13.44c2.83,0,5.1,1.64,6.02,4.56h0.1V491.62z M1394.63,514.98
				c3.45,0,5.49-2.53,5.49-10.79c0-8.21-2.05-10.73-5.49-10.73c-3.45,0-5.47,2.52-5.47,10.73
				C1389.15,512.45,1391.18,514.98,1394.63,514.98z"/>
			<path id="XMLID_99_" class="st0" d="M1413.41,482.73h2.92v4.95h-2.92V482.73z M1413.41,491.62h2.92v25.78h-2.92V491.62z"/>
			<path id="XMLID_97_" class="st0" d="M1441.99,508.84c-0.42,5.49-3.44,9.13-8.19,9.13c-5.44,0-8.64-3.78-8.64-13.49
				c0-8.93,3.2-13.44,8.88-13.44c4.86,0,7.66,2.95,7.95,8.25h-2.9c-0.35-4.03-1.95-5.83-5.05-5.83c-3.16,0-5.77,1.94-5.77,11.07
				c0,9.69,2.76,11.01,5.48,11.01c2.96,0,4.86-2.18,5.35-6.7H1441.99z"/>
			<path id="XMLID_93_" class="st0" d="M1466.57,482.73h9.55c6.71,0,9.33,3.54,9.33,8.7c0,3.39-1.85,6.65-5.35,7.53v0.09
				c4.28,0.82,6.46,4.11,6.46,8.63c0,6.08-3.93,9.72-10.5,9.72h-9.5V482.73z M1469.68,497.98h4.89c5.33,0,7.77-2.28,7.77-6.31
				c0-4.6-2.37-6.31-7.22-6.31h-5.43V497.98z M1469.68,514.77h5.77c5.39,0,8-2.43,8-7.09c0-4.66-2.61-7.08-8-7.08h-5.77V514.77z"/>
			<path id="XMLID_91_" class="st0" d="M1495.3,491.62h2.92v18.15c0,4.18,1.4,5.78,4.46,5.78c3.3,0,5.64-2.63,5.64-6.6v-17.32h2.91
				v25.78h-2.64v-3.6h-0.09c-1.45,2.88-3.98,4.18-6.59,4.18c-3.92,0-6.61-2.04-6.61-6.9V491.62z"/>
			<path id="XMLID_89_" class="st0" d="M1525.29,504.58c-3.63-1.42-4.95-3.55-4.95-6.12c0-5.29,3.31-7.42,7.68-7.42
				c4.85,0,7.08,2.46,7.08,7.17v0.74h-2.91v-0.74c0-3.35-1.56-4.75-4.24-4.75c-3.39,0-4.7,1.8-4.7,4.37c0,1.8,0.57,3.2,3.48,4.32
				l4.24,1.62c3.49,1.29,4.79,3.73,4.79,6.54c0,4.42-2.53,7.67-7.95,7.67c-5.29,0-7.92-2.19-7.92-8.01v-0.82h2.92v0.67
				c0,3.79,1.65,5.74,4.96,5.74c3.1,0,5.09-1.75,5.09-4.6c0-2.29-0.93-3.74-3.49-4.76L1525.29,504.58z"/>
			<path id="XMLID_75_" class="st0" d="M1544.68,482.73h2.91v4.95h-2.91V482.73z M1544.68,491.62h2.91v25.78h-2.91V491.62z"/>
			<path id="XMLID_73_" class="st0" d="M1557.78,491.62h2.63v3.59h0.09c1.45-2.85,3.97-4.17,6.61-4.17c3.93,0,6.58,2.03,6.58,6.88
				v19.48h-2.9v-18.65c0-3.53-1.46-5.28-4.42-5.28c-3.39,0-5.68,2.63-5.68,6.6v17.34h-2.92V491.62z"/>
			<path id="XMLID_70_" class="st0" d="M1599.59,508.84c-0.45,5.49-3.46,9.13-8.31,9.13c-5.46,0-8.66-3.78-8.66-13.49
				c0-8.93,3.21-13.44,8.89-13.44c5.74,0,8.32,3.92,8.32,12.52v1.08h-14.1v1.2c0,7.43,2.63,9.71,5.49,9.71
				c3.05,0,4.95-2.18,5.44-6.7H1599.59z M1596.7,502.2c-0.09-6.41-1.89-8.74-5.48-8.74c-3.6,0-5.4,2.33-5.49,8.74H1596.7z"/>
			<path id="XMLID_67_" class="st0" d="M1612.82,504.58c-3.62-1.42-4.94-3.55-4.94-6.12c0-5.29,3.29-7.42,7.65-7.42
				c4.86,0,7.1,2.46,7.1,7.17v0.74h-2.9v-0.74c0-3.35-1.55-4.75-4.22-4.75c-3.41,0-4.72,1.8-4.72,4.37c0,1.8,0.58,3.2,3.49,4.32
				l4.23,1.62c3.49,1.29,4.79,3.73,4.79,6.54c0,4.42-2.51,7.67-7.94,7.67c-5.31,0-7.94-2.19-7.94-8.01v-0.82h2.92v0.67
				c0,3.79,1.66,5.74,4.96,5.74c3.12,0,5.09-1.75,5.09-4.6c0-2.29-0.91-3.74-3.48-4.76L1612.82,504.58z"/>
			<path id="XMLID_65_" class="st0" d="M1636.08,504.58c-3.64-1.42-4.95-3.55-4.95-6.12c0-5.29,3.29-7.42,7.67-7.42
				c4.85,0,7.08,2.46,7.08,7.17v0.74h-2.89v-0.74c0-3.35-1.58-4.75-4.24-4.75c-3.39,0-4.7,1.8-4.7,4.37c0,1.8,0.57,3.2,3.49,4.32
				l4.22,1.62c3.49,1.29,4.81,3.73,4.81,6.54c0,4.42-2.52,7.67-7.96,7.67c-5.3,0-7.92-2.19-7.92-8.01v-0.82h2.93v0.67
				c0,3.79,1.64,5.74,4.93,5.74c3.12,0,5.1-1.75,5.1-4.6c0-2.29-0.92-3.74-3.5-4.76L1636.08,504.58z"/>
			<path id="XMLID_63_" class="st0" d="M1686.37,491.62c0-4.27-1.98-6.85-6.22-6.85c-4.23,0-6.55,2.76-6.55,6.21
				c0,10.34,16.8,4.65,16.8,16.85c0,6.69-4.18,10.14-10.48,10.14c-6.5,0-10.11-3.5-10.11-10.29v-1.02h3.1v1.31
				c0,4.42,2.34,7.39,6.9,7.39c4.37,0,7.47-2.19,7.47-7.04c0-10.3-16.8-4.43-16.8-17c0-5.44,3.55-9.18,9.57-9.18
				c6.45,0,9.42,3.3,9.42,9.47H1686.37z"/>
			<path id="XMLID_61_" class="st0" d="M1696.47,491.62h3.12l5.77,22.33h0.09l5.2-22.33h3.1l-7.51,27.87
				c-1.36,5.05-2.93,6.45-6.85,6.45c-0.79,0-1.36-0.06-1.95-0.09v-2.43c0.63,0.05,1.25,0.09,1.88,0.09c1.8,0,3.01-0.73,3.83-3.45
				l0.74-2.41L1696.47,491.62z"/>
			<path id="XMLID_56_" class="st0" d="M1725.37,504.58c-3.67-1.42-4.98-3.55-4.98-6.12c0-5.29,3.32-7.42,7.68-7.42
				c4.86,0,7.09,2.46,7.09,7.17v0.74h-2.92v-0.74c0-3.35-1.55-4.75-4.23-4.75c-3.38,0-4.69,1.8-4.69,4.37c0,1.8,0.59,3.2,3.49,4.32
				l4.23,1.62c3.48,1.29,4.82,3.73,4.82,6.54c0,4.42-2.55,7.67-7.98,7.67c-5.28,0-7.91-2.19-7.91-8.01v-0.82h2.91v0.67
				c0,3.79,1.66,5.74,4.96,5.74c3.1,0,5.1-1.75,5.1-4.6c0-2.29-0.92-3.74-3.51-4.76L1725.37,504.58z"/>
			<path id="XMLID_54_" class="st0" d="M1745.6,494.05h-3.54v-2.43h3.54v-7.13h2.9v7.13h4.56v2.43h-4.56v18.51
				c0,2.03,0.88,2.7,2.77,2.7c0.58,0,1.18-0.09,1.8-0.28v2.42c-0.33,0.2-1.05,0.29-2.02,0.29c-3.93,0-5.44-1.06-5.44-4.52V494.05z"
				/>
			<path id="XMLID_51_" class="st0" d="M1776.49,508.84c-0.45,5.49-3.46,9.13-8.31,9.13c-5.44,0-8.64-3.78-8.64-13.49
				c0-8.93,3.21-13.44,8.89-13.44c5.71,0,8.3,3.92,8.3,12.52v1.08h-14.09v1.2c0,7.43,2.63,9.71,5.49,9.71c3.05,0,4.95-2.18,5.44-6.7
				H1776.49z M1773.61,502.2c-0.1-6.41-1.89-8.74-5.48-8.74c-3.58,0-5.39,2.33-5.49,8.74H1773.61z"/>
			<path id="XMLID_49_" class="st0" d="M1785.84,491.62h2.62v3.59h0.09c1.36-2.85,3.68-4.17,6.55-4.17c3.11,0,5,1.88,5.4,4.51h0.09
				c1.16-2.88,3.26-4.51,6.55-4.51c3.59,0,5.97,2.03,5.97,6.65v19.7h-2.91v-19.27c0-3.06-1.4-4.66-4.03-4.66
				c-2.9,0-5.23,2.63-5.23,6.6v17.34h-2.93v-19.27c0-3.06-1.39-4.66-4.02-4.66c-2.91,0-5.24,2.63-5.24,6.6v17.34h-2.92V491.62z"/>
			<path id="XMLID_47_" class="st0" d="M1827.39,504.58c-3.64-1.42-4.94-3.55-4.94-6.12c0-5.29,3.3-7.42,7.66-7.42
				c4.87,0,7.09,2.46,7.09,7.17v0.74h-2.91v-0.74c0-3.35-1.56-4.75-4.22-4.75c-3.4,0-4.72,1.8-4.72,4.37c0,1.8,0.6,3.2,3.5,4.32
				l4.23,1.62c3.48,1.29,4.79,3.73,4.79,6.54c0,4.42-2.52,7.67-7.96,7.67c-5.29,0-7.9-2.19-7.9-8.01v-0.82h2.92v0.67
				c0,3.79,1.63,5.74,4.94,5.74c3.1,0,5.1-1.75,5.1-4.6c0-2.29-0.92-3.74-3.5-4.76L1827.39,504.58z"/>
		</g>
		<g id="XMLID_12_">
			<path id="XMLID_43_" class="st0" d="M1265.01,445.05c-2.33,0-3.48-1.13-3.48-3.47V323.36c0-2.32,1.15-3.49,3.48-3.49h61.36
				c2.32,0,3.48,1.17,3.48,3.49v8.69c0,2.32-1.16,3.47-3.48,3.47h-42.95v38.42h34.27c2.31,0,3.47,1.16,3.47,3.49v8.69
				c0,2.33-1.16,3.47-3.47,3.47h-34.27v39.81h42.95c2.32,0,3.48,1.16,3.48,3.49v8.68c0,2.34-1.16,3.47-3.48,3.47H1265.01z"/>
			<path id="XMLID_41_" class="st0" d="M1363.92,405.59c-6.49-1.97-11.18-5.21-14.09-9.74c-2.9-4.53-4.34-9.67-4.34-15.48
				c0-3.94,0.68-7.62,2.09-11.03c1.38-3.42,3.43-6.41,6.17-8.95c2.71-2.56,6.1-4.53,10.16-5.92c4.05-1.4,8.75-2.09,14.08-2.09
				c7.43,0,13.84,0.92,19.22,2.78c5.38,1.85,9.06,3.76,11.04,5.74c0.34,0.34,0.65,0.86,0.94,1.56c0.29,0.7-0.03,1.69-0.94,2.95
				l-3.66,5.57c-0.34,0.83-0.99,1.12-1.9,0.98c-0.94-0.19-1.8-0.39-2.62-0.61c-3.13-1.17-6.34-2.18-9.65-3.05
				c-3.3-0.87-6.81-1.3-10.53-1.3c-5.21,0-8.94,1.04-11.21,3.12c-2.26,2.09-3.39,4.82-3.39,8.16c0,1.98,0.53,3.71,1.57,5.22
				c1.05,1.5,2.78,2.61,5.22,3.3l20.34,5.91c7.53,2.21,12.71,5.45,15.56,9.74c2.85,4.3,4.26,9.8,4.26,16.52
				c0,4.75-0.99,8.86-2.95,12.34c-1.96,3.47-4.61,6.41-7.92,8.78c-3.3,2.38-7.15,4.14-11.55,5.3c-4.4,1.15-8.98,1.74-13.74,1.74
				c-3.71,0-7.25-0.23-10.59-0.68c-3.38-0.46-6.44-1.07-9.24-1.83c-2.76-0.75-5.17-1.65-7.21-2.7c-2.02-1.05-3.45-2.15-4.25-3.3
				c-1.06-1.51-1.11-3.01-0.19-4.53l3.65-5.57c0.47-0.58,1.12-0.83,2.01-0.78c0.87,0.06,1.71,0.2,2.53,0.44
				c3.36,1.15,6.83,2.17,10.42,3.02c3.58,0.88,7.53,1.32,11.83,1.32c3.59,0,6.52-0.36,8.77-1.04c2.26-0.7,4.04-1.59,5.31-2.71
				c1.27-1.09,2.14-2.34,2.6-3.73c0.46-1.39,0.7-2.78,0.7-4.18c0-2.66-1.02-4.7-3.05-6.16c-2.03-1.45-5.54-2.98-10.52-4.61
				L1363.92,405.59z"/>
			<path id="XMLID_39_" class="st0" d="M1458.5,445.05c-7.88,0-13.84-2.23-17.91-6.68c-4.05-4.47-6.08-11.27-6.08-20.43v-49.54
				h-9.05c-2.32,0-3.48-1.16-3.48-3.48v-6.78c0-2.31,1.16-3.47,3.48-3.47h9.05v-13.39c0-1.27,0.28-2.06,0.87-2.35
				c0.58-0.28,1.44-0.66,2.62-1.13l13.9-5.21c1.15-0.47,2.02-0.33,2.59,0.43c0.58,0.76,0.87,1.77,0.87,3.04v18.62h10.95
				c2.32,0,3.48,1.15,3.48,3.47v6.78c0,2.32-1.16,3.48-3.48,3.48h-10.95v50.06c0,4.31,0.91,7.36,2.71,9.22
				c1.78,1.87,3.66,2.79,5.64,2.79h1.22c2.31,0,3.48,1.16,3.48,3.47v7.66c0,2.34-1.17,3.47-3.48,3.47H1458.5z"/>
			<path id="XMLID_37_" class="st0" d="M1487.19,445.05c-2.32,0-3.48-1.13-3.48-3.47v-83.45c0-2.31,1.16-3.47,3.48-3.47h8.68
				c1.27,0,2.04,0.29,2.26,0.85c0.24,0.59,0.64,1.45,1.23,2.61l1.73,6.6h0.35c1.85-2.88,3.79-5.08,5.83-6.6
				c2.01-1.52,4.02-2.61,5.98-3.3c1.98-0.7,3.96-1.13,6.01-1.31c2.01-0.17,3.96-0.26,5.82-0.26c1.27,0,2.13,0.11,2.53,0.35
				c0.4,0.23,0.6,0.98,0.6,2.26v13.04c0,1.16-0.21,1.95-0.6,2.33c-0.41,0.42-0.96,0.66-1.66,0.72c-0.69,0.06-1.48,0-2.35-0.19
				c-0.88-0.16-1.71-0.26-2.53-0.26c-11.01,0-16.52,5.63-16.52,16.87v53.2c0,2.34-1.15,3.47-3.48,3.47H1487.19z"/>
			<path id="XMLID_34_" class="st0" d="M1599.32,445.05c-1.27,0-2.11-0.26-2.52-0.79c-0.4-0.51-0.72-1.42-0.95-2.68l-1.73-7.12
				h-0.36c-2.31,4.17-5.59,7.32-9.83,9.47c-4.22,2.13-9.28,3.21-15.2,3.21c-4.41,0-8.59-0.63-12.53-1.91
				c-3.93-1.27-7.4-3.22-10.43-5.81c-3.01-2.62-5.38-5.89-7.13-9.82c-1.73-3.95-2.6-8.59-2.6-13.91c0-5.57,0.95-10.18,2.86-13.83
				c1.93-3.64,4.52-6.55,7.83-8.69c3.31-2.15,7.16-3.65,11.56-4.52c4.39-0.87,9.1-1.3,14.09-1.3h17.91
				c-0.24-1.86-0.67-3.94-1.32-6.26c-0.63-2.31-1.64-4.52-3.04-6.61c-1.39-2.07-3.27-3.84-5.66-5.29c-2.38-1.44-5.36-2.16-8.95-2.16
				c-2.79,0-5.77,0.4-8.96,1.2c-3.19,0.82-6.75,1.87-10.69,3.15c-1.63,0.58-2.71,0.75-3.29,0.51c-0.59-0.22-1-0.51-1.22-0.87
				l-3.65-5.57c-1.04-1.62-0.98-3.12,0.17-4.51c0.82-0.94,2.21-1.91,4.18-2.96c1.97-1.05,4.28-1.97,6.95-2.78
				c2.67-0.81,5.61-1.49,8.86-2.01c3.25-0.51,6.6-0.78,10.09-0.78c7.53,0,13.74,1.24,18.59,3.73c4.88,2.5,8.72,5.89,11.57,10.17
				c2.84,4.29,4.81,9.22,5.9,14.78c1.11,5.56,1.66,11.47,1.66,17.74v42.76c0,2.34-1.16,3.47-3.48,3.47H1599.32z M1590.63,401.93
				h-18.34c-4.68,0-8.39,1.16-11.19,3.49c-2.8,2.31-4.2,5.56-4.2,9.72c0,1.75,0.3,3.63,0.87,5.64c0.57,2.04,1.51,3.92,2.8,5.66
				c1.28,1.75,2.97,3.19,5.07,4.35c2.08,1.17,4.71,1.74,7.86,1.74c5.36,0,9.55-2.03,12.58-6.09c3.04-4.04,4.55-10.53,4.55-19.47
				V401.93z"/>
			<path id="XMLID_32_" class="st0" d="M1645.56,405.59c-6.49-1.97-11.19-5.21-14.09-9.74c-2.89-4.53-4.35-9.67-4.35-15.48
				c0-3.94,0.7-7.62,2.09-11.03c1.39-3.42,3.46-6.41,6.17-8.95c2.72-2.56,6.12-4.53,10.17-5.92c4.06-1.4,8.75-2.09,14.08-2.09
				c7.42,0,13.82,0.92,19.22,2.78c5.39,1.85,9.07,3.76,11.04,5.74c0.36,0.34,0.66,0.86,0.95,1.56c0.29,0.7-0.02,1.69-0.95,2.95
				l-3.65,5.57c-0.34,0.83-0.99,1.12-1.91,0.98c-0.94-0.19-1.8-0.39-2.6-0.61c-3.14-1.17-6.34-2.18-9.65-3.05
				c-3.31-0.87-6.82-1.3-10.52-1.3c-5.22,0-8.96,1.04-11.22,3.12c-2.26,2.09-3.4,4.82-3.4,8.16c0,1.98,0.54,3.71,1.58,5.22
				c1.05,1.5,2.78,2.61,5.22,3.3l20.33,5.91c7.54,2.21,12.73,5.45,15.57,9.74c2.85,4.3,4.26,9.8,4.26,16.52
				c0,4.75-1,8.86-2.95,12.34c-1.99,3.47-4.61,6.41-7.92,8.78c-3.3,2.38-7.15,4.14-11.57,5.3c-4.39,1.15-8.98,1.74-13.72,1.74
				c-3.72,0-7.25-0.23-10.61-0.68c-3.36-0.46-6.43-1.07-9.21-1.83c-2.79-0.75-5.19-1.65-7.21-2.7c-2.04-1.05-3.46-2.15-4.27-3.3
				c-1.04-1.51-1.1-3.01-0.17-4.53l3.67-5.57c0.46-0.58,1.12-0.83,1.98-0.78c0.88,0.06,1.72,0.2,2.51,0.44
				c3.37,1.15,6.85,2.17,10.44,3.02c3.59,0.88,7.54,1.32,11.82,1.32c3.59,0,6.53-0.36,8.78-1.04c2.26-0.7,4.02-1.59,5.3-2.71
				c1.28-1.09,2.15-2.34,2.61-3.73c0.46-1.39,0.69-2.78,0.69-4.18c0-2.66-1.01-4.7-3.03-6.16c-2.04-1.45-5.54-2.98-10.52-4.61
				L1645.56,405.59z"/>
			<path id="XMLID_16_" class="st0" d="M1749.86,447.14c-8.33,0-15.23-1.25-20.67-3.74c-5.46-2.48-9.74-5.84-12.86-10.08
				c-3.14-4.23-5.35-9.2-6.62-14.95c-1.27-5.74-1.9-11.85-1.9-18.35c0-6.48,0.63-12.6,1.9-18.33c1.28-5.74,3.48-10.79,6.62-15.12
				c3.13-4.36,7.41-7.79,12.86-10.35c5.44-2.56,12.34-3.82,20.67-3.82c8.36,0,15.25,1.27,20.69,3.82
				c5.46,2.56,9.75,5.96,12.88,10.26c3.12,4.28,5.32,9.34,6.6,15.12c1.3,5.8,1.92,11.89,1.92,18.26c0,6.5-0.63,12.6-1.92,18.33
				c-1.27,5.74-3.48,10.75-6.6,15.04c-3.13,4.3-7.42,7.68-12.88,10.16C1765.11,445.89,1758.22,447.14,1749.86,447.14z
				 M1749.86,431.5c4.3,0,7.84-0.85,10.61-2.53c2.78-1.68,4.96-3.94,6.53-6.77c1.56-2.85,2.64-6.18,3.21-10.01
				c0.59-3.81,0.87-7.94,0.87-12.34c0-4.29-0.28-8.38-0.87-12.27c-0.58-3.87-1.66-7.26-3.21-10.16c-1.57-2.9-3.75-5.18-6.53-6.86
				c-2.77-1.68-6.32-2.53-10.61-2.53c-4.39,0-7.95,0.85-10.67,2.53c-2.74,1.68-4.88,3.96-6.45,6.86c-1.55,2.9-2.62,6.28-3.21,10.16
				c-0.58,3.89-0.86,7.98-0.86,12.27c0,4.41,0.28,8.53,0.86,12.34c0.59,3.82,1.67,7.15,3.21,10.01c1.58,2.83,3.72,5.09,6.45,6.77
				C1741.91,430.65,1745.48,431.5,1749.86,431.5z"/>
			<path id="XMLID_13_" class="st0" d="M1831.58,445.05c-7.88,0-13.85-2.23-17.9-6.68c-4.06-4.47-6.09-11.27-6.09-20.43v-98.06
				c0-2.31,1.17-3.47,3.48-3.47h13.91c2.33,0,3.48,1.16,3.48,3.47v96.84c0,4.88,0.53,8.38,1.56,10.52c1.06,2.15,2.16,3.22,3.31,3.22
				h1.21c2.33,0,3.48,1.16,3.48,3.47v7.66c0,2.34-1.15,3.47-3.48,3.47H1831.58z"/>
		</g>
		<g id="XMLID_5_">
			<path id="XMLID_7_" class="st0" d="M1876.18,436.2c0,6.14-4.76,10.94-10.93,10.94c-6.18,0-10.96-4.8-10.96-10.94
				c0-6.13,4.78-10.94,10.96-10.94C1871.42,425.26,1876.18,430.06,1876.18,436.2z M1855.99,436.2c0,5.25,3.95,9.41,9.25,9.41
				c5.27,0,9.22-4.16,9.22-9.41c0-5.23-3.95-9.38-9.22-9.38C1859.94,426.82,1855.99,430.97,1855.99,436.2z M1861.26,442.52v-12.65
				h4.86c2.85,0,4.11,1.24,4.11,3.49c0,2.25-1.47,3.25-3.19,3.54l3.77,5.62h-1.82l-3.55-5.62h-2.64v5.62H1861.26 M1864.88,435.57
				c1.92,0,3.79-0.06,3.79-2.21c0-1.75-1.47-2.16-3-2.16h-2.87v4.37H1864.88z"/>
		</g>
	</g>
</g>
</svg>
