<?xml version="1.0" encoding="utf-8"?>
<!-- Generator: Adobe Illustrator 28.0.0, SVG Export Plug-In . SVG Version: 6.00 Build 0)  -->
<svg version="1.1" id="Capa_1" xmlns="http://www.w3.org/2000/svg" xmlns:xlink="http://www.w3.org/1999/xlink" x="0px" y="0px"
	 viewBox="0 0 538.6 170.1" style="enable-background:new 0 0 538.6 170.1;" xml:space="preserve">
<style type="text/css">
	.st0{fill:#030C11;}
	.st1{fill:#007EA9;}
</style>
<g>
	<g>
		<g>
			<path class="st0" d="M141.1,28.2h49.6c13.3,0,23.8,3.8,30.5,10.3c4.8,5,7.5,11.2,7.5,18.6v0.3c0,15.1-9.3,23-18.5,27
				c13.8,4.2,25,12.2,25,28.1v0.3c0,20-16.8,31.8-42.3,31.8h-51.8L141.1,28.2L141.1,28.2z M215.3,59c0-11.5-9.2-19-25.8-19H154v40.1
				h34.4c15.8,0,26.8-7.2,26.8-20.8V59z M190.8,91.8H154v41.1h39.1c17.6,0,28.6-7.8,28.6-20.8v-0.3
				C221.8,99.1,211.1,91.8,190.8,91.8"/>
			<path class="st0" d="M251.4,99.3V99c0-25.2,17.7-45.4,41.9-45.4c25.9,0,40.7,20.6,40.7,46.1c0,1.7,0,2.7-0.2,4.2h-69.3
				c1.9,18.9,15.2,29.6,30.8,29.6c12,0,20.4-4.9,27.5-12.3l8.1,7.3c-8.8,9.8-19.4,16.4-36,16.4C271,144.7,251.4,126.3,251.4,99.3
				 M320.8,94.2c-1.4-15.9-10.5-29.7-27.9-29.7c-15.2,0-26.7,12.7-28.4,29.7C264.6,94.2,320.8,94.2,320.8,94.2z"/>
			<path class="st0" d="M346.5,132.4l6.6-9.3c9.5,7.1,19.9,11.2,30.2,11.2c10.5,0,18.1-5.4,18.1-13.9V120c0-8.8-10.3-12.2-21.8-15.4
				C366,100.8,350.7,96,350.7,80v-0.3c0-15,12.5-25,29.7-25c10.6,0,22.5,3.7,31.4,9.6l-5.9,9.8c-8.1-5.2-17.4-8.4-25.9-8.4
				c-10.3,0-16.9,5.4-16.9,12.7v0.3c0,8.3,10.8,11.5,22.5,15c13.5,4.1,28,9.3,28,25v0.3c0,16.6-13.7,26.2-31.1,26.2
				C370.2,145.2,356.3,140.3,346.5,132.4"/>
			<path class="st0" d="M440.8,120.1V67.4h-12.2V55.9h12.2V28.2h13v27.6h27.7v11.5h-27.7v51c0,10.7,5.9,14.5,14.7,14.5
				c4.4,0,8.1-0.9,12.7-3V141c-4.6,2.4-9.5,3.7-15.7,3.7C451.4,144.7,440.8,137.8,440.8,120.1"/>
			<g>
				<polygon class="st1" points="62.5,144.7 116.3,144.7 62.5,47.4 				"/>
				<polygon class="st1" points="124.4,28.2 70.7,28.2 124.4,125.6 				"/>
			</g>
			<rect x="27.9" y="56.3" class="st0" width="18" height="88.4"/>
			<rect x="27.9" y="28.2" class="st0" width="18" height="13.4"/>
			<rect x="497.9" y="131.3" class="st0" width="13.4" height="13.4"/>
		</g>
	</g>
	<g>
		<path class="st0" d="M504.9,44.4c-5.4,0-9.7-4.4-9.7-9.7s4.4-9.7,9.7-9.7c5.4,0,9.7,4.4,9.7,9.7S510.3,44.4,504.9,44.4z
			 M504.9,27.1c-4.2,0-7.5,3.4-7.5,7.5s3.4,7.5,7.5,7.5c4.2,0,7.5-3.4,7.5-7.5S509.1,27.1,504.9,27.1z"/>
		<path class="st0" d="M504.5,34c0.5,0,0.8-0.1,1-0.3c0.2-0.2,0.3-0.5,0.3-0.9c0-0.4-0.1-0.7-0.3-0.9c-0.2-0.2-0.5-0.3-1-0.3h-1V34
			H504.5 M503.5,35.5v3.3h-2.3v-8.8h3.5c1.2,0,2,0.2,2.5,0.6c0.5,0.4,0.8,1,0.8,1.8c0,0.6-0.1,1.1-0.4,1.4c-0.3,0.4-0.7,0.6-1.3,0.8
			c0.3,0.1,0.6,0.2,0.8,0.5c0.2,0.2,0.5,0.6,0.7,1.1l1.2,2.5h-2.4l-1.1-2.2c-0.2-0.4-0.4-0.7-0.7-0.9c-0.2-0.2-0.5-0.2-0.9-0.2
			H503.5"/>
	</g>
</g>
</svg>
