<svg id="Layer_1" data-name="Layer 1" xmlns="http://www.w3.org/2000/svg" viewBox="0 0 604.7675 129.8975"><g id="obok-logo"><path id="svg_19" data-name="svg 19" d="M231.7243,2.2521c12.7887,0,23.8079,2.5738,32.8967,7.8019a50.3311,50.3311,0,0,1,20.8318,22.1188c4.7455,9.5714,7.078,20.7514,7.078,33.7009a83.3529,83.3529,0,0,1-3.8607,25.98,56.6345,56.6345,0,0,1-11.5822,20.2689,50.0671,50.0671,0,0,1-18.9819,13.11,66.3507,66.3507,0,0,1-25.8187,4.5042,67.5707,67.5707,0,0,1-25.899-4.6651,50.8293,50.8293,0,0,1-19.0624-13.1908,57.3091,57.3091,0,0,1-11.5822-20.43,82.78,82.78,0,0,1-3.9411-25.8187,79.5787,79.5787,0,0,1,4.102-26.06,56.1951,56.1951,0,0,1,11.8235-20.1884,50.0515,50.0515,0,0,1,18.821-12.7082C213.8684,3.7,222.2334,2.2521,231.7243,2.2521Zm35.47,63.38c0-9.0083-1.4478-16.81-4.3433-23.4861a32.3279,32.3279,0,0,0-12.467-15.0407,33.9728,33.9728,0,0,0-18.66-5.0673A32.784,32.784,0,0,0,217.89,24.8535a30.421,30.421,0,0,0-10.9387,8.204,38.3094,38.3094,0,0,0-7.2389,13.7539,62.274,62.274,0,0,0-2.6542,18.821,62.96,62.96,0,0,0,2.6542,18.982,38.9909,38.9909,0,0,0,7.48,14.0756,31.4208,31.4208,0,0,0,11.1,8.3649,35.0786,35.0786,0,0,0,31.3684-2.0108c5.389-3.2173,9.5714-8.1237,12.7887-14.7995,3.1369-6.6758,4.7455-14.8,4.7455-24.6122Z"/><path id="svg_20" data-name="svg 20" d="M333.5511,15.3625V50.4308A54.5474,54.5474,0,0,1,346.742,40.1355c4.5042-2.4129,10.054-3.539,16.6494-3.539a37.2787,37.2787,0,0,1,20.0275,5.389A34.9765,34.9765,0,0,1,396.7706,57.75c3.1369,6.8367,4.7455,15.0408,4.7455,24.4513a64.3686,64.3686,0,0,1-2.6542,19.1428,44.9305,44.9305,0,0,1-7.7215,15.1212,35.5411,35.5411,0,0,1-12.2257,9.8931,37.3376,37.3376,0,0,1-15.8451,3.539,38.1347,38.1347,0,0,1-9.9735-1.2869,31.4152,31.4152,0,0,1-7.9628-3.2977,35.7358,35.7358,0,0,1-5.63-4.2629c-1.5282-1.4478-3.539-3.7-6.1128-6.5954v2.2521c0,4.3433-1.0456,7.5606-3.1369,9.8127a10.3919,10.3919,0,0,1-7.8823,3.2977,9.947,9.947,0,0,1-7.8019-3.2977c-1.93-2.2521-2.8955-5.4694-2.8955-9.8127V16.4081c0-4.665.9651-8.204,2.8151-10.5366a9.3853,9.3853,0,0,1,7.8823-3.539q5.3085,0,8.204,3.3782C332.5859,7.8823,333.5511,11.18,333.5511,15.3625Zm1.0456,68.2063c0,9.1692,2.0913,16.1668,6.2737,21.0731a20.252,20.252,0,0,0,16.4081,7.3193c5.7911,0,10.7779-2.4934,14.96-7.5606,4.1824-4.9867,6.2736-12.2256,6.2736-21.5557a43.6778,43.6778,0,0,0-2.5738-15.6842,22.2068,22.2068,0,0,0-7.4-10.1345,17.9888,17.9888,0,0,0-11.18-3.539,20.3765,20.3765,0,0,0-11.743,3.539,23.2208,23.2208,0,0,0-8.0432,10.3758A40.0064,40.0064,0,0,0,334.5967,83.5688Z"/><path id="svg_21" data-name="svg 21" d="M505.9167,83.0862a53.9947,53.9947,0,0,1-3.2173,18.9015,42.1323,42.1323,0,0,1-9.25,14.88,40.6556,40.6556,0,0,1-14.4778,9.5714,49.0667,49.0667,0,0,1-18.9015,3.2977,49.59,49.59,0,0,1-18.7406-3.3782,41.8315,41.8315,0,0,1-23.7274-24.4513,53.9221,53.9221,0,0,1-3.1369-18.9015,54.8848,54.8848,0,0,1,3.2173-19.0623,41.6059,41.6059,0,0,1,9.1693-14.7995,40.4489,40.4489,0,0,1,14.4777-9.491,54.8043,54.8043,0,0,1,37.7226.0805A40.6077,40.6077,0,0,1,502.78,64.1042,54.6778,54.6778,0,0,1,505.9167,83.0862Zm-23.0035,0c0-9.33-2.0912-16.6494-6.1933-21.8775s-9.6518-7.8019-16.6494-7.8019a20.0432,20.0432,0,0,0-11.8235,3.539,22.55,22.55,0,0,0-7.8823,10.2953A42.91,42.91,0,0,0,437.55,83.1666a42.291,42.291,0,0,0,2.7347,15.7647,22.4961,22.4961,0,0,0,7.8019,10.2952,19.97,19.97,0,0,0,11.9844,3.539,20.29,20.29,0,0,0,16.6494-7.8823c4.1019-5.3085,6.1932-12.5474,6.1932-21.797Z"/><path id="svg_22" data-name="svg 22" d="M581.2814,119.2805,561.0126,85.9817l-12.467,11.7431v18.258c0,4.4238-1.126,7.8019-3.4585,10.2149a10.9647,10.9647,0,0,1-8.0432,3.539,10.522,10.522,0,0,1-8.365-3.539c-2.0108-2.3326-3.0564-5.7911-3.0564-10.4562V17.8559c0-5.0672.9652-9.0084,2.976-11.6626a9.9178,9.9178,0,0,1,8.4454-4.0216,10.6518,10.6518,0,0,1,8.4453,3.6194c2.0912,2.413,3.1369,5.952,3.1369,10.6974V72.1474l25.8186-27.1055a59.58,59.58,0,0,1,7.3193-6.9172,10.864,10.864,0,0,1,13.2713.8848,9.1059,9.1059,0,0,1,2.8151,6.8367c0,3.3781-3.1369,7.8823-9.33,13.4321l-12.2257,11.18,23.5666,36.9986c1.7695,2.7347,2.976,4.826,3.78,6.2737a8.0586,8.0586,0,0,1,1.126,4.1021c0,3.6194-.9651,6.5149-2.9759,8.6062a10.2535,10.2535,0,0,1-7.8824,3.1368c-2.8151,0-4.9867-.7239-6.5149-2.2521a46.0872,46.0872,0,0,1-6.1129-8.0432Z"/><path id="svg_23" data-name="svg 23" d="M69.9758,86.7056c8.6866,0,16.3276-4.5042,19.4645-12.3061,1.2869-3.2173,2.8955-4.102,6.1128-4.0216a8.4134,8.4134,0,0,0,5.63-2.0912c.9652-1.0456,1.2869-4.0216.4826-5.2281-.9652-1.5282-3.539-3.1368-5.228-2.8955-4.1825.4826-5.7911-1.2869-7.5606-4.8259A20.7607,20.7607,0,0,0,63.3,44.881,21.7115,21.7115,0,0,0,49.0635,69.4932c1.689,9.8127,10.617,17.132,20.9123,17.2124Zm.2413-32.3336c5.63-.0805,10.7778,5.0672,10.8583,10.6974a11.25,11.25,0,0,1-10.9388,11.1A11.2913,11.2913,0,0,1,59.2783,65.3911C59.1979,59.6805,64.3455,54.4524,70.2171,54.372Z"/><path id="svg_24" data-name="svg 24" d="M124.2673,0H15.9255A15.9619,15.9619,0,0,0,0,15.9255v97.9661a15.9619,15.9619,0,0,0,15.9255,15.9255H124.2673a15.9619,15.9619,0,0,0,15.9255-15.9255V15.9255A15.9619,15.9619,0,0,0,124.2673,0Zm5.1476,112.1221a6.7282,6.7282,0,0,1-6.6758,6.7563H17.3733a6.7283,6.7283,0,0,1-6.7563-6.6759h0V17.6146a6.7283,6.7283,0,0,1,6.6759-6.7563H122.5782a6.7283,6.7283,0,0,1,6.7563,6.6759h0l.08,94.5879Z"/><path id="svg_25" data-name="svg 25" d="M112.7655,22.1992H27.4273A5.767,5.767,0,0,0,21.6362,27.99v74.48a5.767,5.767,0,0,0,5.7911,5.7911h85.3382a5.767,5.767,0,0,0,5.7911-5.7911h0V28.0707A5.8358,5.8358,0,0,0,112.7655,22.1992Zm-4.9867,75.3647H32.5749V33.2184h75.2039Z"/></g></svg>