<svg id="Capa_1" data-name="Capa 1" xmlns="http://www.w3.org/2000/svg" viewBox="0 0 1462.83 417.35"><defs><style>.cls-1{fill:#282828;}.cls-2{fill:red;}</style></defs><path class="cls-1" d="M552.37,130.12c0,20.73-15,33.28-39.84,33.28h-23.6v28.92H475.29V96.83h37.24C537.36,96.83,552.37,109.38,552.37,130.12Zm-13.65,0c0-13.64-9.14-21.42-26.6-21.42H488.93v42.83h23.19C529.58,151.53,538.72,143.76,538.72,130.12Z"/><path class="cls-1" d="M637.14,192.32,616.54,163c-1.91.14-3.95.28-6,.28h-23.6v29H573.3V96.83h37.24c24.83,0,39.83,12.55,39.83,33.29,0,14.73-7.64,25.37-21,30.15l22.64,32Zm-.41-62.2c0-13.64-9.14-21.42-26.6-21.42H586.94v43h23.19C627.59,151.67,636.73,143.76,636.73,130.12Z"/><path class="cls-1" d="M665.57,144.58c0-28,21.56-48.84,50.89-48.84,29,0,50.61,20.74,50.61,48.84s-21.56,48.84-50.61,48.84C687.13,193.42,665.57,172.54,665.57,144.58Zm87.85,0c0-21.15-15.82-36.7-37-36.7-21.42,0-37.24,15.55-37.24,36.7s15.82,36.7,37.24,36.7C737.6,181.28,753.42,165.72,753.42,144.58Z"/><path class="cls-1" d="M865.9,130.12c0,20.73-15,33.28-39.84,33.28h-23.6v28.92H788.82V96.83h37.24C850.89,96.83,865.9,109.38,865.9,130.12Zm-13.65,0c0-13.64-9.14-21.42-26.6-21.42H802.46v42.83h23.19C843.11,151.53,852.25,143.76,852.25,130.12Z"/><path class="cls-1" d="M886.28,151.13V96.83h13.65v53.75c0,21.14,9.68,30.7,26.87,30.7s27-9.56,27-30.7V96.83h13.24v54.3c0,27.69-15.15,42.29-40.39,42.29S886.28,178.82,886.28,151.13Z"/><path class="cls-1" d="M995.89,96.83h13.63v83.63h51.71v11.86H995.89Z"/><path class="cls-1" d="M1068.94,180.59l4.93-10.41c6.94,6.27,18.81,10.81,30.81,10.81,16.14,0,23.07-6.27,23.07-14.41,0-22.8-56.55-8.4-56.55-43.08,0-14.4,11.21-26.67,35.75-26.67,10.93,0,22.27,2.93,30,8.27l-4.4,10.67a48.24,48.24,0,0,0-25.61-7.6c-15.87,0-22.68,6.67-22.68,14.8,0,22.81,56.55,8.54,56.55,42.81,0,14.27-11.46,26.54-36.14,26.54C1090.41,192.32,1076.4,187.52,1068.94,180.59Z"/><path class="cls-1" d="M1162.44,96.83h13.64v95.49h-13.64Z"/><path class="cls-1" d="M1199,144.58c0-27.34,21.08-47.75,49.75-47.75,28.41,0,49.48,20.27,49.48,47.75s-21.07,47.75-49.48,47.75C1220.05,192.33,1199,171.92,1199,144.58Zm85.9,0c0-20.68-15.47-35.88-36.15-35.88-20.94,0-36.41,15.2-36.41,35.88s15.47,35.88,36.41,35.88C1269.4,180.46,1284.87,165.25,1284.87,144.58Z"/><path class="cls-1" d="M1403.21,96.83v95.49H1392l-57.3-71.21v71.21h-13.64V96.83h11.18l57.3,71.21V96.83Z"/><path class="cls-1" d="M475.29,220.94h28.18v99.62H475.29Z"/><path class="cls-1" d="M621.23,220.94v99.62H598l-44-53.08v53.08H526.45V220.94h23.2l44,53.08V220.94Z"/><path class="cls-1" d="M644.07,220.94h47.1c33,0,55.65,19.22,55.65,49.81s-22.63,49.81-55.65,49.81h-47.1Zm46,77.13c16.93,0,28.32-10.1,28.32-27.32S707,243.43,690,243.43H672.25v54.64Z"/><path class="cls-1" d="M763.68,276.16V220.94h28.17V275.3c0,17.08,7.12,23.91,18.93,23.91s18.79-6.83,18.79-23.91V220.94h27.75v55.22c0,29.74-17.37,46.39-46.82,46.39S763.68,305.9,763.68,276.16Z"/><path class="cls-1" d="M872.33,311.59l9.25-20.77a62.83,62.83,0,0,0,32.87,9.82c11.67,0,16.23-3.28,16.23-8.12,0-15.79-56.64-4.27-56.64-41.27,0-17.78,14.51-32.3,44.11-32.3,13,0,26.33,3,36.15,8.68l-8.68,20.92c-9.54-5.12-18.93-7.68-27.61-7.68-11.81,0-16.08,4-16.08,9,0,15.23,56.49,3.84,56.49,40.56,0,17.36-14.51,32.16-44.11,32.16C898,322.55,881.72,318.14,872.33,311.59Z"/><path class="cls-1" d="M994.07,243.29h-30.6V220.94h89.23v22.35h-30.45v77.27H994.07Z"/><path class="cls-1" d="M1109.7,294.09h-15.37v26.47h-28.18V220.94h45.54c27.18,0,44.26,14.09,44.26,36.86,0,14.66-7.12,25.47-19.5,31.45l21.49,31.31h-30.17Zm.28-50.95h-15.65v29.18H1110c11.67,0,17.51-5.41,17.51-14.52S1121.65,243.14,1110,243.14Z"/><path class="cls-1" d="M1174.38,220.94h28.17v99.62h-28.17Z"/><path class="cls-1" d="M1305.52,298.79v21.77h-80V220.94h78.13v21.78h-50.24v16.79h44.26v21.06h-44.26v18.22Z"/><path class="cls-1" d="M1317.12,311.59l9.25-20.77a62.83,62.83,0,0,0,32.87,9.82c11.67,0,16.22-3.28,16.22-8.12,0-15.79-56.64-4.27-56.64-41.27,0-17.78,14.52-32.3,44.12-32.3,13,0,26.33,3,36.15,8.68l-8.69,20.92c-9.53-5.12-18.92-7.68-27.6-7.68-11.81,0-16.09,4-16.09,9,0,15.23,56.5,3.84,56.5,40.56,0,17.36-14.51,32.16-44.11,32.16C1342.73,322.55,1326.51,318.14,1317.12,311.59Z"/><path class="cls-2" d="M373.77,48.42H64.56A16.14,16.14,0,0,0,48.42,64.56v286.7C128.84,340.76,200.71,290.52,256,230c31.29-34.08,58.94-72.3,84.64-112.18-32,87.23-81.23,172.71-154.21,232.78q-11.7,9.64-24.5,18.32H373.77a16.15,16.15,0,0,0,16.15-16.15V64.56A16.15,16.15,0,0,0,373.77,48.42Z"/></svg>