<?xml version="1.0" encoding="UTF-8"?>
<svg id="Capa_1" xmlns="http://www.w3.org/2000/svg" version="1.1" viewBox="0 0 1080 1080">
  <!-- Generator: Adobe Illustrator 29.2.1, SVG Export Plug-In . SVG Version: 2.1.0 Build 116)  -->
  <defs>
    <style>
      .st0 {
        fill: #df4661;
      }

      .st1 {
        fill: #8c4799;
      }

      .st2 {
        fill: #483698;
      }

      .st3 {
        fill: #41b6e6;
      }

      .st4 {
        fill: #009cde;
      }

      .st5 {
        fill: #084eb6;
      }

      .st6 {
        fill: #0072ce;
      }

      .st7 {
        fill: #00358e;
      }

      .st8 {
        fill: #ff585d;
      }
    </style>
  </defs>
  <path class="st3" d="M265.2605569,770.3941109c-2.7712907,0-5.0184397-2.247149-5.0184397-5.0184397s2.247149-5.0184397,5.0184397-5.0184397c74.6076632,0,135.3067482-60.6990851,135.3067482-135.3067482,0-58.4577277-37.251707-110.0842383-92.6948959-128.4639479-3.9933228-1.3233854-8.0879989-2.4701264-12.1653001-3.4054732-2.7017912-.6225993-4.387153-3.3128073-3.7674495-6.0145985.6254951-2.7017912,3.3157031-4.3842572,6.0145985-3.7674495,4.3842572,1.0077421,8.7829934,2.2384616,13.0745847,3.6603045,59.5581357,19.7465322,99.5753418,75.2013043,99.5753418,137.9911646,0,80.1415571-65.2020705,145.3436276-145.3436276,145.3436276Z"/>
  <path class="st4" d="M265.2605569,748.7450312c-2.7712907,0-5.0184397-2.247149-5.0184397-5.0184397s2.247149-5.0184397,5.0184397-5.0184397c62.6711321,0,113.6576685-50.9865365,113.6576685-113.6576685,0-40.4370986-21.7620163-78.1550311-56.7984282-98.440184-2.3977311-1.3870933-3.2172455-4.4566524-1.8272565-6.8543836,1.3841974-2.400627,4.447965-3.2288288,6.8543836-1.8272565,38.123346,22.0689722,61.8081805,63.1170869,61.8081805,107.1218241,0,68.205026-55.4895219,123.6945479-123.6945479,123.6945479Z"/>
  <path class="st6" d="M265.2605569,727.0959515c-2.7712907,0-5.0184397-2.247149-5.0184397-5.0184397s2.247149-5.0184397,5.0184397-5.0184397c50.7346009,0,92.0085888-41.2739879,92.0085888-92.0085888,0-39.7507915-25.3296549-74.8567029-63.0273168-87.3550212-9.3216142-3.0898299-19.0718083-4.6564634-28.981272-4.6564634-2.7712907,0-5.0184397-2.247149-5.0184397-5.0184397s2.247149-5.0184397,5.0184397-5.0184397c10.9867053,0,21.7967661,1.7403821,32.1377056,5.166126,41.8126086,13.8651409,69.9077626,52.7993139,69.9077626,96.882238,0,56.2684949-45.7769733,102.0454682-102.0454682,102.0454682Z"/>
  <path class="st5" d="M265.2605569,705.4468718c-2.7712907,0-5.0184397-2.247149-5.0184397-5.0184397s2.247149-5.0184397,5.0184397-5.0184397c38.7980698,0,70.3595091-31.5614393,70.3595091-70.3595091,0-20.8063988-9.1333865-40.431307-25.0632404-53.8475973-6.8659668-5.7829337-14.6499056-10.1411286-23.1317347-12.9529606-2.6322918-.8745348-4.0570306-3.7124291-3.1853916-6.3418251.8774306-2.6322918,3.7153249-4.051239,6.3418251-3.1853916,9.6980696,3.2172455,18.5939996,8.1980397,26.4387504,14.8062794,18.1972735,15.3246295,28.6366706,37.7497864,28.6366706,61.5214953,0,44.329068-36.0673205,80.3963885-80.3963885,80.3963885Z"/>
  <path class="st8" d="M227.1430025,662.215316c-.167957,0-.3388098-.0086874-.5125585-.0260623-6.7646135-.6863071-13.5466018-1.8620062-20.1577373-3.4952433-9.063887-2.2413574-17.9656087-5.3891034-26.4619169-9.3563639-50.9488909-23.815146-83.8713611-75.5285309-83.8713611-131.7420054,0-80.1415571,65.2020705-145.3436276,145.3465234-145.3436276,2.7712907,0,5.0184397,2.247149,5.0184397,5.0184397s-2.247149,5.0184397-5.0184397,5.0184397c-74.610559,0-135.309644,60.6990851-135.309644,135.3067482,0,52.3359842,30.6492589,100.4788347,78.0826358,122.6491603,7.9055628,3.6921585,16.1904768,6.6227187,24.6230772,8.7077023,6.1535974,1.5203005,12.4635686,2.6149169,18.7619566,3.2519953,2.7568116.2808936,4.7636084,2.7423326,4.4856106,5.4991442-.2635188,2.583063-2.4440641,4.5116728-4.9865858,4.5116728Z"/>
  <path class="st0" d="M203.7709155,635.174237c-.5270375,0-1.0656583-.0839785-1.5926958-.260623-7.8244801-2.6207086-15.4259828-6.0522441-22.5902181-10.2019406-38.1175544-22.0718681-61.7994931-63.1170869-61.7994931-107.1160325,0-68.205026,55.4924177-123.6945479,123.6974437-123.6945479,2.7712907,0,5.0184397,2.247149,5.0184397,5.0184397s-2.247149,5.0184397-5.0184397,5.0184397c-62.6740279,0-113.6605643,50.9865365-113.6605643,113.6576685,0,40.431307,21.7591205,78.1492395,56.7897408,98.4343924,6.5821774,3.8108867,13.5639766,6.9615286,20.7484826,9.3679471,2.629396.8803264,4.0454473,3.7240124,3.1651209,6.3505125-.703682,2.0994627-2.6583541,3.4257439-4.7578167,3.4257439Z"/>
  <path class="st1" d="M241.4859522,619.644005c-8.0156036,0-16.0022491-.9353468-23.7369591-2.7799781-8.2762266-1.972047-16.3034134-4.9894816-23.8498957-8.9741169-33.5942983-17.7397355-54.4615091-52.33888-54.4615091-90.294269,0-56.2684949,45.7798691-102.0454682,102.048364-102.0454682,2.7712907,0,5.0184397,2.247149,5.0184397,5.0184397s-2.247149,5.0184397-5.0184397,5.0184397c-50.7346009,0-92.0114846,41.2739879-92.0114846,92.0085888,0,34.225585,18.816977,65.4250479,49.1071554,81.4215054,6.802259,3.5879093,14.0359938,6.3099712,21.4956018,8.0879989,6.9731118,1.6592994,14.1749927,2.5019803,21.4087274,2.5019803,2.7712907,0,5.0184397,2.247149,5.0184397,5.0184397s-2.247149,5.0184397-5.0184397,5.0184397Z"/>
  <path class="st2" d="M214.5954554,593.0575683c-.596537,0-1.2017614-.107145-1.7896109-.3301224-30.9330484-11.8178029-51.7191765-42.0095237-51.7191765-75.1318049,0-44.329068,36.0673205-80.3963885,80.3992843-80.3963885,2.7712907,0,5.0184397,2.247149,5.0184397,5.0184397s-2.247149,5.0184397-5.0184397,5.0184397c-38.7980698,0-70.3624049,31.5614393-70.3624049,70.3595091,0,28.9899595,18.1885861,55.4142308,45.261519,65.7551703,2.5888546.9903672,3.8861778,3.8890736,2.8987064,6.4779282-.764494,2.0010051-2.6699373,3.2288288-4.6883173,3.2288288Z"/>
  <path class="st7" d="M265.3126815,683.8006879c-2.7712907,0-5.0184397-2.247149-5.0184397-5.0184397s2.247149-5.0184397,5.0184397-5.0184397c26.8615387,0,48.7133252-21.8517865,48.7133252-48.7133252,0-38.4534684-34.3819587-48.7133252-54.6960698-48.7133252l-11.8583442.0086874c-32.2245799,0-64.735845-18.1654196-64.735845-58.7502046,0-32.3954327,26.3547719-58.7502046,58.7502046-58.7502046,2.7712907,0,5.0184397,2.247149,5.0184397,5.0184397s-2.247149,5.0184397-5.0184397,5.0184397c-26.8615387,0-48.7133252,21.8517865-48.7133252,48.7133252,0,38.4534684,34.3819587,48.7133252,54.6960698,48.7133252l11.8583442-.0086874c32.2245799,0,64.735845,18.1654196,64.735845,58.7502046,0,32.3954327-26.3547719,58.7502046-58.7502046,58.7502046Z"/>
  <path class="st7" d="M785.4566579,542.9194452l-26.5108162,60.5649833c-1.7014742,3.8870836-5.5423286,6.3985441-9.7854917,6.3985441h-.000014c-4.2431632,0-8.0840175-2.5114605-9.7854917-6.3985441l-26.5108162-60.5649833c-1.7752584-4.0556462,1.1960455-8.5997533,5.6232126-8.5997533h.8170809c2.4559941,0,4.6755784,1.4639344,5.642547,3.7215612l24.3582649,56.8703789,24.9047935-56.9143621c.9775894-2.2340631,3.1849154-3.677578,5.6235049-3.677578h.0000134c4.4271671,0,7.398471,4.544107,5.6232126,8.5997533Z"/>
  <path class="st7" d="M506.9373731,607.3867838c-2.9752113-.866889-5.6133087-1.8566513-7.9151135-2.9701085-3.1709993-1.5339146-4.434787-5.3765662-2.7944618-8.4938509l.0000057-.0000108c1.5895695-3.0208283,5.2597431-4.0681219,8.3411091-2.5993406,2.0724023.987843,4.3343613,1.8492823,6.7874675,2.5843177,4.7491293,1.4247388,9.5503832,2.1428998,14.3979701,2.1428998,11.9770725,0,17.9656087-3.4228481,17.9656087-10.2685442,0-2.2818987-.810827-4.0830929-2.4266892-5.4151657s-3.6313464-2.3050652-6.0580357-2.9247687c-2.4208976-.6197035-5.8669122-1.3031148-10.3322521-2.0676087-6.0869938-.9498259-11.0504131-2.0444423-14.9018411-3.2780575-3.851428-1.2336153-7.1526521-3.3243905-9.9094637-6.2723257-2.7568116-2.9479351-4.1352175-7.0831526-4.1352175-12.4056524,0-6.8456962,2.8552692-12.3303613,8.5542244-16.4655788,5.7047468-4.1352175,13.3554783-6.2028262,22.9579861-6.2028262,5.0329187,0,10.0716291.6197035,15.1103395,1.8533188,2.2214424.5438704,4.267272,1.17217,6.1374889,1.8839062,3.486917,1.3269932,5.051969,5.3602373,3.2789713,8.6429162l-.0000058.0000108c-1.5123042,2.8000087-4.8985987,3.9120817-7.8105061,2.6283731-5.0152385-2.2109579-10.6348013-3.315242-16.8610783-3.315242-5.7974127,0-10.2164196.9498259-13.2570207,2.8494776-3.0463927,1.8996517-4.5637974,4.4190069-4.5637974,7.5580656,0,2.4730222.8571599,4.4190069,2.5656882,5.8437457s3.8224699,2.4730222,6.3418251,3.133267c2.5193552.6660364,6.0638273,1.4305304,10.6218331,2.2818987,6.0812022,1.0482834,11.0040801,2.1660663,14.7570506,3.3533486,3.7529705,1.1872823,6.9615286,3.2085581,9.6256743,6.0580357,2.6583541,2.8494776,3.9904269,6.8456962,3.9904269,11.9770725,0,6.8399045-2.9247687,12.2840284-8.7685144,16.3207883-5.8437457,4.0425515-13.8072247,6.0638273-23.8788538,6.0638273-6.1796597,0-12.121863-.8339934-17.8208182-2.4961887Z"/>
  <path class="st7" d="M695.9676675,533.133882c1.081051.0010332,2.0703911.0090705,2.9757768.0228494,4.5828014.0697446,7.3819608,5.0357724,5.1282463,9.0267252l-.0000068.0000121c-1.2166808,2.154539-3.6124264,3.3340183-6.0613186,2.9800725-11.8180428-1.7080978-26.6508062,5.5275418-26.6508062,23.5373072v33.4821708c0,3.7791705-3.063623,6.8427935-6.8427935,6.8427935h-.0000137c-3.7791705,0-6.8427935-3.063623-6.8427935-6.8427935v-62.1614828c0-3.6224381,2.9365663-6.5590044,6.5590044-6.5590044h.0000131c3.6224381,0,6.5590044,2.9365663,6.5590044,6.5590044v6.1304375c3.1505663-7.8682295,12.3827939-13.0303188,25.1756874-13.0180918Z"/>
  <path class="st7" d="M863.2558783,541.0900969c5.6526222,5.5599563,8.4789333,13.7145588,8.4789333,24.4522243v36.6406978c0,3.7791705-3.063623,6.8427935-6.8427935,6.8427935h-.0000137c-3.7791705,0-6.8427935-3.063623-6.8427935-6.8427935v-35.0711685c0-7.3206091-1.7606528-12.8342324-5.2761668-16.5408699-3.515514-3.7066375-8.5542244-5.5599563-15.1103395-5.5599563-7.413275,0-13.2570207,2.1660663-17.5370287,6.4866156-4.2742164,4.326341-6.4171162,10.5291672-6.4171162,18.6084786v32.0769004c0,3.7791705-3.063623,6.8427935-6.8427935,6.8427935h-.0000137c-3.7791705,0-6.8427935-3.063623-6.8427935-6.8427935v-62.1614828c0-3.6224381,2.9365663-6.5590044,6.5590044-6.5590044h.0000131c3.6224381,0,6.5590044,2.9365663,6.5590044,6.5590044v4.8446976c2.7568116-3.8919694,6.4866156-6.8862375,11.189412-8.9770127,4.708588-2.0907752,10.0542543-3.1390586,16.0427905-3.1390586,9.5967162,0,17.2242812,2.7799781,22.882695,8.3399344Z"/>
  <path class="st7" d="M956.4468696,575.8050739h-53.8673536c.8571599,6.6545727,3.776137,12.0002389,8.7685144,16.0427905,4.9923774,4.0367599,11.189412,6.0580357,18.6084786,6.0580357,6.9165615,0,12.8054561-1.7865071,17.661467-5.3621296,2.5301618-1.8630319,6.0249341-1.5713173,8.066286.8172992l.0000076.0000088c2.163968,2.5320913,1.8668871,6.4123625-.736053,8.4905701-2.4860499,1.9848816-5.2821994,3.6156367-8.3871299,4.8922653-5.0850433,2.0907752-10.760832,3.1390586-17.0331577,3.1390586-7.9866455,0-15.0697981-1.6390288-21.2436662-4.9228779-6.1796597-3.2780575-10.9577471-7.8592298-14.3284706-13.7551001-3.3765151-5.8900787-5.0618769-12.5446513-5.0618769-19.9579264,0-7.3206091,1.6390288-13.9230572,4.9170863-19.8189274,3.2780575-5.8958703,7.795522-10.4828342,13.5466018-13.7608918s12.2376954-4.9170863,19.4598469-4.9170863,13.6624342,1.6390288,19.320848,4.9170863c5.6526222,3.2780575,9.9091665,7.9557321,13.2570207,13.7608918,2.6572404,4.6076393,3.606294,11.152128,4.0973996,16.6190077.3739931,4.1632087-2.8658757,7.7579256-7.0458491,7.7579256ZM910.3518715,550.2871913c-4.4190069,3.9904269-7.0136532,9.2202608-7.7723555,15.68371h48.4758687c-.764494-6.3707832-3.3533486-11.571659-7.7723555-15.6142105-4.4190069-4.0367599-9.9094637-6.0580357-16.4655788-6.0580357s-12.0465719,1.9981093-16.4655788,5.9885362Z"/>
  <path class="st7" d="M635.0822675,575.8050739h-53.8673536c.8571599,6.6545727,3.776137,12.0002389,8.7685144,16.0427905,4.9923774,4.0367599,11.189412,6.0580357,18.6084786,6.0580357,6.9165615,0,12.8054561-1.7865071,17.661467-5.3621296,2.5301618-1.8630319,6.0249341-1.5713173,8.066286.8172992l.0000076.0000088c2.163968,2.5320913,1.8668871,6.4123625-.736053,8.4905701-2.4860499,1.9848816-5.2821994,3.6156367-8.3871299,4.8922653-5.0850433,2.0907752-10.760832,3.1390586-17.0331577,3.1390586-7.9866455,0-15.0697981-1.6390288-21.2436662-4.9228779-6.1796597-3.2780575-10.9577471-7.8592298-14.3284706-13.7551001-3.3765151-5.8900787-5.0618769-12.5446513-5.0618769-19.9579264,0-7.3206091,1.6390288-13.9230572,4.9170863-19.8189274,3.2780575-5.8958703,7.795522-10.4828342,13.5466018-13.7608918s12.2376954-4.9170863,19.4598469-4.9170863,13.6624342,1.6390288,19.320848,4.9170863c5.6526222,3.2780575,9.9091665,7.9557321,13.2570207,13.7608918,2.6572404,4.6076393,3.606294,11.152128,4.0973996,16.6190077.3739931,4.1632087-2.8658757,7.7579256-7.0458491,7.7579256ZM588.9872694,550.2871913c-4.4190069,3.9904269-7.0136532,9.2202608-7.7723555,15.68371h48.4758687c-.764494-6.3707832-3.3533486-11.571659-7.7723555-15.6142105-4.4190069-4.0367599-9.9094637-6.0580357-16.4655788-6.0580357s-12.0465719,1.9981093-16.4655788,5.9885362Z"/>
  <path class="st7" d="M1023.5230293,600.1236242c1.1914024,2.7390969-.1042435,5.8789053-2.8471446,7.0615234-3.193851,1.3770478-7.4692066,2.697825-11.7437129,2.697825-7.6043985,0-13.4944772-2.0444423-17.6760276-6.1333268-4.1815504-4.0830929-6.2723257-9.9326302-6.2723257-17.5370287v-41.485382h-7.2018865c-3.1106587,0-5.6323459-2.5216872-5.6323459-5.6323459v-.0000113c0-3.1106587,2.5216872-5.6323459,5.6323459-5.6323459h7.2018865v-15.6229048c0-3.7791705,3.063623-6.8427935,6.8427935-6.8427935h.0000137c3.7791705,0,6.8427935,3.063623,6.8427935,6.8427935v15.6229048h16.0399003c3.1106587,0,5.6323459,2.5216872,5.6323459,5.6323459v.0000113c0,3.1106587-2.5216872,5.6323459-5.6323459,5.6323459h-16.0399003v40.9178032c0,4.0888845,1.0193253,7.2221515,3.0637676,9.4113843,2.0444423,2.1834412,4.9692109,3.2780575,8.7685144,3.2780575,2.3449606,0,4.4968566-.3733794,6.4536454-1.1211597,2.5815854-.9865443,5.4653506.3759843,6.5676785,2.9102941l.0000043.0000098Z"/>
  <metadata>
    <sfw xmlns="http://ns.adobe.com/SaveForWeb/1.0/">
      <slices/>
      <sliceSourceBounds x="96.14" y="-770.39" width="927.83" height="398.14" bottomLeftOrigin="true"/>
    </sfw>
  </metadata>
</svg>