<?xml version="1.0" encoding="UTF-8"?>
<svg id="Capa_2" data-name="Capa 2" xmlns="http://www.w3.org/2000/svg" viewBox="0 0 486.13 119.65">
  <defs>
    <style>
      .cls-1 {
        fill: #006847;
      }

      .cls-2 {
        fill: #a3d856;
      }

      .cls-3 {
        fill: #292a32;
      }
    </style>
  </defs>
  <g id="Propuesta_Final" data-name="Propuesta Final">
    <g id="amias_hor_color">
      <g>
        <g>
          <path class="cls-2" d="M388.03,0l14.36,2.53-2.53,14.36-14.36-2.53,2.53-14.36Z"/>
          <path class="cls-2" d="M399.86,16.9l14.36,2.53-2.53,14.36-14.36-2.53,2.53-14.36Z"/>
          <path class="cls-2" d="M382.96,28.73l14.36,2.53-2.53,14.36-14.36-2.53,2.53-14.36Z"/>
          <path class="cls-2" d="M371.13,11.83l14.36,2.53-2.53,14.36-14.36-2.53,2.53-14.36Z"/>
        </g>
        <path class="cls-1" d="M468.46,102.33c-1.93,0-3.5-1.57-3.5-3.5V8.23h-16.04c-1.93,19.54-12.27,72.22-35.72,72.22-13.1,0-13.79-28.19-13.79-28.47h-16v46.85c0,1.93-1.57,3.5-3.5,3.5h-10.38v16h10.38c10.75,0,19.5-8.75,19.5-19.5v-5.64h1.46c4.52,2.62,9.03,3.26,12.33,3.26,15.21,0,25.97-10.26,33.47-23.13h2.29v25.51c0,10.75,8.75,19.5,19.5,19.5h17.67v-16h-17.67Z"/>
      </g>
      <g>
        <path class="cls-3" d="M0,98.58c0-13.52,10.6-20.54,25.44-20.54h18.02v-3.71c0-6.1-3.71-10.6-12.19-10.6s-12.06,4.24-13.25,10.2l-15.37-5.17c3.18-9.94,11.79-18.55,28.89-18.55s28.09,8.88,28.09,25.31v24.51c0,2.65,1.33,3.98,3.71,3.98h5.3v13.78h-11.13c-6.49,0-11.26-3.45-11.26-8.75v-.13h-2.52c-1.19,3.31-5.3,10.73-19.08,10.73S0,112.1,0,98.58ZM43.46,91.82v-1.33h-16.83c-6.23,0-9.94,2.78-9.94,7.55s3.71,8.08,10.87,8.08c9.28,0,15.9-5.56,15.9-14.31Z"/>
        <path class="cls-3" d="M73.3,117.79V52.07h16.43v7.16h2.39c2.25-4.37,7.42-8.22,16.17-8.22,9.41,0,14.71,3.98,17.76,9.81h2.38c2.92-5.57,7.95-9.81,18.02-9.81,12.19,0,22,7.69,22,23.59v43.2h-16.7v-42c0-7.16-3.98-10.87-10.6-10.87-7.69,0-11.93,5.04-11.93,14.05v38.82h-16.7v-42c0-7.16-3.98-10.87-10.6-10.87-7.69,0-11.93,5.04-11.93,14.05v38.82h-16.7Z"/>
        <rect class="cls-3" x="178.77" y="68.77" width="16.7" height="49.03"/>
        <path class="cls-3" d="M203.15,98.58c0-13.52,10.6-20.54,25.44-20.54h18.02v-3.71c0-6.1-3.71-10.6-12.19-10.6s-12.06,4.24-13.25,10.2l-15.37-5.17c3.18-9.94,11.79-18.55,28.89-18.55s28.09,8.88,28.09,25.31v24.51c0,2.65,1.32,3.98,3.71,3.98h5.3v13.78h-11.13c-6.49,0-11.26-3.45-11.26-8.75v-.13h-2.52c-1.19,3.31-5.3,10.73-19.08,10.73s-24.65-7.55-24.65-21.07ZM246.61,91.82v-1.33h-16.83c-6.23,0-9.94,2.78-9.94,7.55s3.71,8.08,10.87,8.08c9.28,0,15.9-5.56,15.9-14.31Z"/>
        <path class="cls-3" d="M272.58,98.18l15.37-3.97c1.72,9.28,7.95,12.19,15.64,12.19s11.4-3.05,11.4-7.16-3.31-5.96-11.13-7.42l-3.71-.66c-13.78-2.52-25.18-7.69-25.18-20.67s10.34-20.27,25.97-20.27c14.71,0,24.78,7.16,27.83,17.76l-15.5,4.77c-1.46-6.76-5.96-9.28-12.32-9.28s-9.81,2.39-9.81,6.23c0,4.24,3.71,5.96,9.81,7.02l3.71.66c14.84,2.65,26.5,6.89,26.5,20.67s-10.87,21.6-27.56,21.6-28.75-7.69-31.01-21.47Z"/>
        <path class="cls-1" d="M182.18,44.64l16.03,2.83-2.83,16.03-16.03-2.83,2.83-16.03Z"/>
      </g>
    </g>
  </g>
</svg>