<?xml version="1.0" standalone="no"?>
<!DOCTYPE svg PUBLIC "-//W3C//DTD SVG 20010904//EN"
 "http://www.w3.org/TR/2001/REC-SVG-20010904/DTD/svg10.dtd">
<svg version="1.0" xmlns="http://www.w3.org/2000/svg"
 width="512.000000pt" height="512.000000pt" viewBox="0 0 512.000000 512.000000"
 preserveAspectRatio="xMidYMid meet">
<metadata>
Created by potrace 1.16, written by Peter Selinger 2001-2019
</metadata>
<g transform="translate(0.000000,512.000000) scale(0.100000,-0.100000)"
fill="#000000" stroke="none">
<path d="M2577 4585 c-174 -28 -317 -79 -460 -164 -43 -25 -88 -51 -100 -57
-12 -6 -48 -24 -80 -40 -126 -63 -343 -251 -417 -362 -19 -29 -30 -58 -30 -81
l0 -36 -132 -32 c-186 -45 -259 -84 -373 -198 -103 -103 -152 -187 -185 -319
-53 -209 0 -454 128 -596 51 -57 135 -113 186 -126 33 -8 33 -11 -3 88 -23 64
-29 195 -11 259 l10 36 58 -9 c93 -15 294 -4 406 22 l98 24 62 -32 c115 -60
216 -170 216 -235 0 -69 -67 -195 -277 -521 -297 -460 -423 -714 -479 -966
-17 -75 -26 -361 -12 -375 3 -3 23 2 45 13 21 11 91 34 155 52 65 18 152 49
193 70 l75 38 0 -24 c0 -13 3 -24 8 -24 16 0 110 61 171 110 l64 52 -5 -206
-5 -206 56 31 c201 113 310 232 373 404 l22 59 13 -64 c25 -128 55 -251 60
-247 2 3 -9 95 -25 204 -17 109 -33 225 -37 259 -9 84 -20 94 -21 20 -2 -153
-130 -402 -266 -518 -62 -53 -137 -103 -143 -96 -3 2 0 31 5 64 6 32 10 133
10 223 l0 164 -68 -67 c-38 -37 -91 -83 -118 -102 l-49 -35 -3 30 c-4 36 -6
37 -38 12 -40 -31 -163 -78 -247 -94 l-78 -15 6 32 c13 58 57 181 89 241 17
33 33 64 35 69 2 5 -17 -3 -42 -18 l-47 -27 45 97 c43 92 95 190 119 225 6 8
-1 3 -15 -12 -41 -42 -108 -163 -138 -248 -14 -43 -38 -93 -54 -112 l-27 -34
6 35 c24 136 136 363 252 510 33 42 31 41 -29 -15 -35 -34 -75 -70 -88 -80
l-24 -20 16 32 c32 61 136 189 224 273 l88 85 3 -33 3 -34 35 57 c19 32 46 72
61 90 126 150 204 246 227 280 l28 40 -6 -70 c-9 -97 -36 -172 -107 -300 -139
-250 -180 -350 -178 -437 l1 -53 9 49 c11 69 73 193 182 364 151 236 182 310
202 472 l11 95 12 -103 c24 -207 9 -380 -53 -606 -18 -66 -32 -122 -31 -123 5
-5 65 163 91 251 45 156 65 278 65 390 0 134 -11 184 -65 293 -52 104 -23 72
34 -37 58 -111 87 -217 106 -381 30 -269 47 -310 234 -569 84 -116 133 -197
196 -325 64 -129 84 -163 85 -140 0 27 3 24 31 -30 36 -69 89 -155 96 -155 2
0 2 3 0 8 -3 4 -49 102 -102 217 -97 211 -137 286 -225 425 -26 41 -78 131
-116 200 -71 128 -88 138 -61 33 8 -29 12 -53 10 -53 -2 0 -20 34 -39 74 -38
84 -49 144 -64 376 -5 85 -16 178 -24 207 l-14 52 27 -20 c60 -44 88 -105 126
-279 21 -91 51 -201 68 -245 36 -96 143 -325 151 -325 4 0 0 15 -8 32 -7 18
-36 85 -63 148 -63 146 -88 221 -113 344 -11 54 -20 101 -20 105 0 3 19 -34
41 -84 48 -104 219 -418 225 -412 3 2 -5 26 -16 53 l-21 49 36 -35 c93 -89
174 -237 246 -448 l40 -117 -6 71 c-5 63 -33 212 -51 272 -12 42 12 22 76 -65
134 -181 144 -205 156 -388 6 -99 -7 -230 -28 -284 -9 -24 -13 -19 -40 64 -31
96 -95 234 -127 275 -19 24 -19 24 0 -32 24 -74 39 -205 39 -353 l-1 -120 -41
45 c-69 75 -148 187 -258 364 -58 92 -125 190 -148 217 -45 50 -71 65 -52 30
23 -44 5 -30 -101 74 -81 81 -107 102 -99 81 15 -41 7 -42 -22 -4 -32 42 -64
105 -93 181 l-22 60 -5 -65 c-4 -51 -15 -83 -49 -148 -44 -85 -108 -179 -163
-239 l-31 -35 42 33 c55 42 122 117 169 189 20 31 39 59 40 61 7 9 271 -251
319 -314 29 -38 88 -131 130 -205 156 -270 288 -440 419 -539 l29 -21 40 102
c65 169 96 272 115 379 l18 101 41 -63 c23 -35 57 -82 76 -104 l34 -39 31 94
c32 98 56 216 68 332 l6 67 58 -77 c83 -110 153 -184 141 -151 -5 14 -17 83
-26 155 -10 71 -23 166 -29 210 l-12 82 76 -67 c86 -76 249 -194 331 -240 l56
-31 -14 67 c-7 38 -20 156 -28 264 -21 295 -52 419 -138 554 -208 331 -563
666 -867 820 -29 15 -54 25 -55 23 -2 -2 78 -58 178 -125 100 -66 222 -156
270 -198 188 -164 414 -482 503 -706 33 -83 64 -213 63 -264 0 -36 -2 -34 -19
30 -10 39 -32 99 -49 135 -29 61 -31 59 -15 -20 4 -17 -4 -10 -26 25 -18 28
-29 41 -25 30 21 -61 45 -175 59 -276 9 -63 18 -124 20 -137 3 -22 1 -21 -31
10 -86 82 -197 249 -348 523 -42 77 -119 210 -171 296 -51 86 -98 168 -103
183 -10 24 -9 26 7 17 28 -15 95 -91 168 -191 36 -49 67 -90 69 -90 11 0 -95
176 -144 241 -49 64 -250 299 -256 299 -1 0 11 -25 27 -56 15 -31 28 -63 28
-71 0 -8 -28 9 -67 40 -38 29 -81 63 -98 74 -104 69 -102 60 14 -53 307 -297
426 -527 526 -1019 40 -194 54 -315 38 -315 -10 0 -41 42 -81 110 -11 19 -48
98 -83 175 -153 344 -389 701 -544 825 -110 87 -124 91 -60 14 70 -82 111
-166 130 -268 25 -129 20 -141 -21 -66 -113 204 -145 257 -224 375 -48 72 -92
141 -99 153 -12 23 -12 23 18 7 39 -19 182 -75 195 -75 21 0 -63 74 -129 113
l-70 42 50 6 c28 3 43 7 34 7 -9 1 -45 21 -80 44 -91 59 -209 128 -209 122 0
-2 41 -31 91 -64 50 -33 90 -60 88 -60 -16 0 -197 78 -258 110 -71 38 -74 39
-41 11 l35 -30 -105 35 c-139 46 -205 63 -309 78 l-86 12 227 8 c125 3 274 4
330 0 119 -8 195 8 246 51 23 19 41 25 79 25 35 0 67 9 110 30 81 41 102 65
34 39 -58 -21 -160 -25 -194 -7 -12 6 -64 17 -114 24 -59 9 -132 28 -200 55
-195 74 -176 71 -406 65 -197 -5 -209 -4 -227 14 -24 24 -26 75 -6 180 17 85
12 118 -27 204 -29 63 -18 67 14 5 21 -43 129 -166 129 -148 0 5 -7 24 -16 41
l-16 30 42 -23 c24 -13 56 -40 72 -59 l30 -35 -6 38 c-8 46 4 48 45 8 18 -19
29 -40 29 -57 0 -22 3 -25 12 -16 7 7 29 12 49 12 32 0 43 -7 76 -44 41 -47
135 -110 192 -131 89 -31 258 -23 294 15 9 8 6 9 -14 2 -124 -47 -310 -3 -420
99 -42 39 -41 38 37 -14 78 -52 118 -67 223 -83 31 -4 42 -3 37 5 -5 7 6 11
33 11 23 0 41 5 41 10 0 6 26 11 58 12 42 1 47 2 20 5 -21 2 -38 8 -38 12 0 5
26 20 58 34 l57 26 -38 0 -39 1 51 40 c28 22 51 45 51 50 0 14 -13 13 -28 -2
-23 -23 -21 -1 3 34 37 54 97 78 233 93 134 14 149 19 242 79 85 55 97 72 28
41 -75 -34 -206 -58 -291 -53 -85 4 -308 81 -252 86 17 1 58 10 92 18 60 16
62 16 137 -10 58 -20 94 -26 149 -25 l72 2 -55 7 c-67 8 -120 25 -179 57 -45
24 -108 29 -146 13 -18 -8 -18 -9 5 -10 l25 -1 -25 -11 c-27 -11 -172 -5 -204
8 -17 7 -15 9 15 20 22 8 27 13 14 13 -42 2 -96 -21 -175 -74 -95 -64 -159
-85 -244 -84 l-61 1 65 17 c67 18 124 44 135 61 3 5 -14 1 -37 -10 -59 -25
-118 -36 -118 -20 0 6 -18 -3 -40 -20 -44 -35 -59 -35 -40 0 10 18 3 16 -34
-13 -77 -58 -171 -68 -242 -26 -89 54 -60 160 74 272 114 97 409 216 637 258
61 12 124 27 140 35 28 13 26 14 -40 8 -226 -18 -482 -108 -677 -237 -101 -66
-164 -129 -209 -207 -19 -33 -39 -60 -46 -60 -15 0 -52 47 -59 76 -9 34 26 98
93 174 45 50 51 59 25 41 -31 -21 -86 -76 -192 -191 l-42 -45 6 53 c3 28 3 52
0 52 -3 0 -16 -25 -30 -55 -14 -30 -27 -55 -30 -55 -2 0 -4 10 -4 23 0 29 57
117 76 117 7 0 18 9 23 19 22 41 324 256 343 245 4 -3 8 -12 8 -21 0 -10 16 0
48 29 127 119 399 211 702 238 149 13 167 12 102 -6 -30 -8 -61 -19 -70 -25
-14 -8 -12 -9 8 -4 14 4 79 10 145 14 66 4 100 9 75 10 -25 2 -37 5 -26 8 10
3 39 2 65 -2 38 -6 43 -9 26 -16 -16 -8 -14 -8 9 -5 16 2 37 1 45 -4 9 -4 44
-16 79 -27 61 -20 62 -20 45 -1 -23 26 -145 84 -218 104 -84 23 -360 28 -478
9z m-828 -809 c69 -63 95 -167 70 -275 -5 -24 -10 -68 -11 -97 l-2 -53 -43 59
c-30 39 -72 78 -133 119 -49 34 -98 74 -110 89 -17 21 -80 145 -80 157 0 4
130 34 165 38 62 7 109 -5 144 -37z m899 8 c52 -36 68 -129 34 -194 -21 -41
-90 -80 -138 -80 -58 0 -120 35 -145 82 -7 13 -4 20 11 28 18 10 27 6 61 -24
64 -59 144 -45 175 30 21 49 -6 111 -43 97 -8 -3 -11 -14 -7 -28 7 -28 -9 -39
-42 -31 -34 9 -33 52 1 68 28 12 29 16 15 38 -19 30 40 41 78 14z m97 -48 c9
-24 15 -54 13 -67 -4 -22 -5 -22 -12 6 -4 17 -15 52 -26 78 -14 35 -15 45 -5
37 8 -6 21 -31 30 -54z m-1296 -62 c46 -104 50 -109 146 -181 44 -33 107 -89
139 -123 33 -34 70 -66 84 -71 15 -6 78 -5 165 2 78 6 185 9 237 6 83 -4 109
-10 205 -49 98 -40 191 -69 265 -82 14 -3 -6 -3 -45 -1 -41 3 -109 17 -165 36
-52 17 -133 35 -179 39 -183 19 -894 -39 -1064 -87 -127 -35 -198 -152 -201
-329 -1 -114 -16 -70 -23 72 -8 148 18 320 64 429 55 129 173 259 283 311 66
31 79 50 28 40 -56 -11 -155 -67 -216 -122 -160 -144 -241 -373 -229 -644 3
-69 9 -136 12 -150 11 -40 -45 58 -70 125 -91 241 -31 507 155 685 32 30 84
71 116 90 64 38 208 91 238 87 13 -1 30 -27 55 -83z m1429 36 c-14 -11 -45
-56 -68 -101 -54 -103 -103 -153 -171 -173 -98 -29 -163 -16 -252 52 -28 22
-75 50 -104 62 -65 28 -87 50 -50 50 15 0 42 14 64 33 20 17 33 25 28 17 -18
-33 -50 -60 -69 -60 -12 0 17 -20 64 -44 47 -23 108 -55 135 -70 105 -58 224
-17 301 104 47 74 116 150 134 150 7 0 1 -9 -12 -20z m-539 -494 c48 -5 246
-55 296 -76 45 -19 -50 -9 -158 16 -95 22 -135 26 -257 26 -217 -1 -518 -32
-750 -78 -69 -14 -165 -28 -213 -31 -48 -3 -90 -10 -93 -15 -3 -4 -11 -8 -17
-8 -7 1 -1 10 12 20 19 16 38 20 101 20 55 0 104 8 166 26 244 72 364 93 609
103 157 7 197 7 304 -3z m159 -97 c134 -21 150 -21 252 6 l25 7 -22 -20 c-44
-39 -111 -46 -299 -32 -161 12 -327 11 -591 -5 -106 -7 -89 4 56 35 201 43
343 45 579 9z m-811 -65 c-3 -3 -12 -4 -19 -1 -8 3 -5 6 6 6 11 1 17 -2 13 -5z
m-127 -30 c-64 -17 -132 -26 -210 -29 l-115 -4 110 10 c61 5 146 17 190 28
117 27 136 23 25 -5z m754 -245 c116 -109 270 -320 415 -569 62 -108 81 -128
36 -40 -14 27 -25 56 -25 64 0 19 31 86 41 86 12 0 59 -121 84 -219 14 -54 29
-109 34 -122 9 -23 10 -23 10 6 1 36 -22 169 -43 251 -13 51 -13 56 0 39 36
-49 89 -318 82 -416 l-3 -41 -110 108 c-122 120 -157 176 -248 399 -81 198
-175 335 -345 496 -80 76 -94 92 -55 65 29 -21 86 -69 127 -107z m357 -87 c38
-35 84 -87 103 -115 19 -29 64 -92 100 -142 79 -109 164 -278 202 -400 l28
-90 13 50 c8 29 12 80 10 123 l-4 74 32 -59 c17 -32 76 -126 131 -209 54 -84
109 -169 121 -190 21 -37 22 -37 23 -13 0 14 -7 48 -15 74 -8 27 -13 51 -11
53 6 5 58 -135 110 -295 37 -114 46 -156 46 -213 0 -79 -24 -208 -47 -258
l-16 -33 -22 88 c-24 91 -74 227 -82 219 -2 -2 0 -21 6 -43 6 -21 11 -51 11
-68 0 -23 -18 3 -81 120 -105 195 -173 297 -246 367 l-60 57 -12 93 c-12 89
-52 281 -67 323 -4 11 10 -1 31 -27 21 -27 40 -48 42 -48 2 0 -8 22 -23 50
-27 49 -94 138 -226 301 -37 46 -65 85 -63 87 3 3 23 -7 46 -23 l42 -27 -23
33 c-13 19 -71 81 -129 138 -115 114 -90 115 30 3z m49 -232 c20 -29 25 -72
14 -129 -7 -34 -20 -40 -28 -13 -7 22 -78 145 -145 250 l-52 84 95 -82 c53
-45 105 -94 116 -110z m-779 46 c-31 -63 -89 -147 -151 -216 -39 -43 -33 -32
50 100 37 58 80 127 95 154 40 68 43 41 6 -38z m119 -27 c-29 -85 -71 -153
-175 -279 -48 -58 -95 -116 -106 -130 l-18 -25 -1 23 0 23 -27 -19 c-16 -11
-68 -57 -117 -103 -49 -46 -84 -74 -78 -63 25 48 133 184 209 264 69 74 174
206 252 318 51 73 27 -3 -33 -104 -19 -33 -42 -68 -51 -79 -16 -19 -16 -18 -1
7 19 33 21 51 3 23 -25 -38 -59 -100 -44 -83 8 10 16 15 19 13 18 -18 143 185
170 275 9 31 14 39 16 24 2 -12 -7 -50 -18 -85z"/>
<path d="M1550 3660 c-12 -7 -12 -14 -4 -27 17 -28 73 -62 113 -68 20 -3 44
-11 54 -16 11 -6 21 -8 23 -6 10 10 -30 88 -54 107 -27 22 -105 27 -132 10z"/>
<path d="M2771 4430 c-96 -14 -95 -18 4 -19 120 -1 335 -33 524 -77 20 -4 9
-12 -67 -50 -50 -25 -113 -53 -142 -63 l-51 -18 102 -7 c56 -3 113 -9 128 -11
19 -4 17 -1 -9 9 -19 8 -47 15 -62 15 -50 2 -29 19 31 26 74 8 145 -11 216
-57 l50 -33 -40 -3 c-71 -6 -59 -19 37 -41 107 -25 238 -76 309 -122 27 -17
49 -33 49 -36 0 -2 -14 -2 -30 2 -36 8 -170 -13 -170 -26 0 -5 4 -9 10 -9 5 0
34 -21 64 -47 30 -27 94 -70 143 -98 87 -49 215 -162 242 -214 12 -21 8 -20
-51 13 -156 90 -364 182 -390 174 -5 -2 26 -18 70 -36 140 -57 428 -255 589
-404 40 -38 76 -68 79 -68 4 0 -5 15 -20 34 -14 19 -58 81 -97 138 -144 208
-253 324 -367 388 -34 19 -85 50 -114 67 l-53 33 43 0 c73 0 183 -45 306 -125
51 -34 24 -5 -96 105 -130 118 -276 222 -369 263 -30 13 -77 41 -105 62 -62
48 -160 95 -199 96 -25 1 -22 3 20 15 28 7 68 14 90 15 36 1 29 5 -62 34 -57
19 -147 43 -201 54 -113 24 -318 34 -411 21z"/>
<path d="M2203 4304 c-24 -19 -52 -50 -64 -67 -13 -19 4 -7 44 33 61 59 72 70
65 70 -2 0 -22 -16 -45 -36z"/>
<path d="M2392 4106 c-55 -21 -172 -89 -172 -100 0 -3 21 7 47 22 26 14 88 43
138 64 98 41 89 51 -13 14z"/>
<path d="M2625 4091 c-19 -4 23 -9 120 -14 83 -3 179 -11 214 -17 35 -6 66 -9
68 -6 3 3 -19 12 -49 22 -57 18 -298 29 -353 15z"/>
<path d="M3195 4015 c45 -15 184 -20 170 -6 -6 5 -55 11 -110 14 -92 4 -97 4
-60 -8z"/>
<path d="M2563 3945 c-71 -32 -67 -39 5 -11 31 13 64 26 72 29 11 4 9 6 -5 6
-11 0 -44 -10 -72 -24z"/>
<path d="M2990 3813 c13 -10 47 -18 79 -19 31 -2 45 0 31 2 -14 3 -47 12 -74
20 -63 18 -66 18 -36 -3z"/>
<path d="M3361 3639 c-71 -12 -77 -19 -15 -19 89 0 190 13 169 21 -26 10 -86
9 -154 -2z"/>
<path d="M3060 3618 c-56 -17 -20 -20 50 -4 57 12 60 14 25 14 -22 0 -56 -4
-75 -10z"/>
<path d="M3555 3541 c83 -21 159 -42 170 -46 14 -4 12 -2 -5 9 -43 27 -176 65
-247 71 -62 5 -55 2 82 -34z"/>
<path d="M3910 3506 c0 -17 107 -152 216 -272 115 -127 180 -210 213 -273 16
-28 15 -28 -95 55 -204 154 -379 261 -616 375 -155 74 -206 91 -93 31 39 -21
117 -70 175 -109 58 -38 164 -107 235 -153 72 -45 160 -104 197 -132 152 -112
329 -375 413 -613 13 -38 24 -66 25 -62 2 42 -26 221 -46 294 -60 226 -159
395 -362 620 -73 81 -262 254 -262 239z"/>
<path d="M3265 3258 c28 -5 80 -15 118 -22 37 -7 64 -9 60 -5 -18 16 -120 39
-172 38 l-56 -1 50 -10z"/>
<path d="M3476 3092 c56 -32 128 -79 161 -105 169 -130 349 -390 455 -657 44
-111 48 -109 13 6 -50 163 -132 314 -250 461 -108 135 -240 241 -402 322 -98
49 -87 36 23 -27z"/>
<path d="M3737 3030 c288 -195 475 -387 596 -615 62 -117 51 -71 -18 71 -123
254 -316 446 -568 564 -47 22 -88 40 -92 40 -3 0 34 -27 82 -60z"/>
<path d="M2760 2903 c0 -8 130 -65 140 -61 6 2 -23 17 -64 35 -42 17 -76 29
-76 26z"/>
<path d="M3602 2788 c54 -51 141 -138 193 -193 91 -95 94 -97 64 -47 -39 66
-163 190 -271 271 l-83 62 97 -93z"/>
<path d="M2995 2700 l20 -23 -25 5 c-14 3 -34 9 -45 14 -18 7 -19 6 -5 -11 8
-10 39 -29 69 -42 84 -37 162 -96 242 -180 73 -78 52 -38 -25 47 -57 62 -180
172 -219 195 l-32 18 20 -23z"/>
<path d="M3162 2435 c9 -11 53 -74 97 -140 45 -65 81 -116 81 -112 0 33 -112
199 -166 247 -17 15 -22 17 -12 5z"/>
<path d="M4046 2230 c9 -19 43 -98 75 -175 32 -77 58 -130 59 -117 1 53 -82
244 -130 302 l-21 25 17 -35z"/>
</g>
</svg>